<svg width="64" height="65" viewBox="0 0 64 65" fill="none" xmlns="http://www.w3.org/2000/svg">
<g clip-path="url(#clip0_551_8371)">
<path d="M59.9293 23.641C61.3182 23.641 62.3902 22.4791 62.3902 21.1244V18.7366C62.3902 17.3172 61.255 16.22 59.9293 16.22H58.6675C58.3521 14.9933 57.847 13.8322 57.2161 12.7351L58.0999 11.8322C59.0462 10.8646 59.0462 9.25087 58.0999 8.21848L56.4588 6.54077C56.0801 5.95944 55.4485 5.70191 54.7544 5.70191C54.0611 5.70191 53.4927 5.95944 52.9875 6.41125L52.1037 7.31487C51.0317 6.66953 49.8957 6.15296 48.6965 5.83068V4.54001C48.6965 3.12058 47.5605 2.02344 46.2355 2.02344H43.9003C42.5121 2.02344 41.4394 3.18534 41.4394 4.54001V5.83068C40.2401 6.15296 39.1041 6.66953 38.0314 7.31487L37.1475 6.41125C36.7056 5.95944 36.0748 5.70191 35.3807 5.70191C34.6866 5.70191 34.119 5.95944 33.6131 6.41125L31.9727 8.08896C31.0264 9.05658 31.0264 10.6703 31.9727 11.7027L32.8565 12.6063C32.2256 13.7034 31.7205 14.8646 31.4051 16.0905H30.1426C28.7544 16.0905 27.6816 17.2524 27.6816 18.6071V20.9949C27.6816 22.4151 28.8169 23.5114 30.1426 23.5114H31.4051C31.7205 24.7381 32.2256 25.8992 32.8565 26.9964L31.9727 27.8992C31.0264 28.8669 31.0264 30.4806 31.9727 31.513L33.6138 33.1907C34.0557 33.6425 34.6866 33.9008 35.3814 33.9008C36.0748 33.9008 36.6432 33.6425 37.1475 33.1907L38.0314 32.2878C39.1041 32.9332 40.2401 33.449 41.4394 33.772V35.0627C41.4394 36.4821 42.5746 37.5792 43.9003 37.5792H46.2355C47.6237 37.5792 48.6965 36.4173 48.6965 35.0627V33.772C49.8957 33.449 51.031 32.9332 52.1045 32.2878L52.9883 33.1907C53.4294 33.6425 54.0603 33.9008 54.7544 33.9008C55.4493 33.9008 56.0169 33.6425 56.522 33.1907L58.1624 31.513C59.1094 30.5453 59.1094 28.9324 58.1624 27.9L57.2786 27.1252C57.9102 26.028 58.4146 24.8669 58.7308 23.641H59.9293V23.641Z" stroke="#002A57" stroke-width="4" stroke-miterlimit="10"/>
<path d="M43.5089 43.1294C44.1031 43.3839 44.6136 43.5538 45.1233 43.8075C46.8224 44.4863 47.5866 46.4376 46.9062 48.1336C46.4818 49.0669 46.1428 50.084 45.7176 51.0174C45.038 52.7134 43.0845 53.4768 41.3862 52.7987C40.8448 52.6133 40.3306 52.3566 39.8571 52.0353C38.8436 53.3864 37.6424 54.5858 36.2898 55.5972C36.5443 56.1915 36.7142 56.7004 36.9687 57.2086C37.7336 58.9054 36.8841 60.8559 35.1858 61.5347C34.251 61.9583 33.2315 62.2981 32.2974 62.7218C31.8936 62.8898 31.4605 62.9763 31.0231 62.9763C30.5858 62.9763 30.1527 62.8898 29.7489 62.7218C28.9847 62.3827 28.3051 61.7892 27.966 60.9412C27.7108 60.3469 27.5409 59.8379 27.2856 59.329C25.625 59.5835 23.9352 59.5835 22.2746 59.329C22.0201 59.8379 21.8494 60.4322 21.595 60.9412C20.9153 62.6372 18.9618 63.4006 17.2628 62.7218C16.3287 62.2981 15.3092 61.9583 14.3751 61.5347C12.6761 60.8566 11.9119 58.9054 12.5915 57.2086C12.846 56.6151 13.0159 56.1061 13.2711 55.5972C11.9185 54.5858 10.7173 53.3864 9.70391 52.0353C9.10962 52.2898 8.59915 52.4589 8.08943 52.7134C7.68571 52.8813 7.25277 52.9677 6.81553 52.9677C6.37828 52.9677 5.94535 52.8813 5.54162 52.7134C4.77743 52.3743 4.09781 51.7808 3.758 50.9328C3.33286 49.9995 2.99305 48.9823 2.56867 48.049C1.80448 46.3522 2.654 44.4018 4.35229 43.7229C4.94658 43.4684 5.45705 43.2993 5.966 43.0448C5.71118 41.3865 5.71118 39.699 5.966 38.0406C5.37172 37.7861 4.862 37.6162 4.35229 37.3625C2.65324 36.6837 1.88905 34.7324 2.56867 33.0364C2.99305 32.1031 3.33286 31.086 3.75724 30.1526C4.43762 28.4566 6.39115 27.6932 8.08943 28.3713C8.68372 28.6258 9.19419 28.7957 9.70391 29.0494C10.7173 27.6982 11.9185 26.4988 13.2711 25.4875C13.0159 24.894 12.846 24.385 12.5915 23.876C11.8273 22.18 12.6761 20.2288 14.3751 19.5507C15.3092 19.1263 16.3287 18.7873 17.2628 18.3629C17.6666 18.1949 18.0997 18.1084 18.5371 18.1084C18.9744 18.1084 19.4075 18.1949 19.8113 18.3629C20.5755 18.7027 21.2551 19.2962 21.595 20.1442C21.7649 20.6532 22.0201 21.2467 22.1892 21.8402" stroke="#002A57" stroke-width="4" stroke-linecap="round" stroke-linejoin="round"/>
<path d="M34.8802 40.5427C34.8802 46.1533 30.3316 50.7011 24.7217 50.7011C19.1111 50.7011 14.5625 46.1526 14.5625 40.5427C14.5625 34.932 19.1111 30.3842 24.7217 30.3842M51.8097 19.8013C51.8192 20.6967 51.6511 21.5851 51.315 22.4151C50.9789 23.245 50.4816 24.0001 49.8518 24.6366C49.222 25.2731 48.4722 25.7784 47.6459 26.1233C46.8195 26.4682 45.933 26.6457 45.0375 26.6457C44.1421 26.6457 43.2556 26.4682 42.4292 26.1233C41.6028 25.7784 40.8531 25.2731 40.2233 24.6366C39.5935 24.0001 39.0962 23.245 38.7601 22.4151C38.424 21.5851 38.2559 20.6967 38.2654 19.8013C38.2843 18.0177 39.0061 16.3135 40.2741 15.0589C41.5421 13.8043 43.2538 13.1006 45.0375 13.1006C46.8213 13.1006 48.533 13.8043 49.801 15.0589C51.069 16.3135 51.7908 18.0177 51.8097 19.8013Z" stroke="#002A57" stroke-width="2"/>
</g>
<defs>
<clipPath id="clip0_551_8371">
<rect width="64" height="64" fill="white" transform="translate(0 0.5)"/>
</clipPath>
</defs>
</svg>
