<svg width="479" height="476" viewBox="0 0 479 476" fill="none" xmlns="http://www.w3.org/2000/svg">
<g clip-path="url(#clip0_551_23828)">
<g opacity="0.4">
<path opacity="0.4" d="M230.481 58.1982V60.3825L239.674 65.6695V63.4853L230.481 58.1982Z" fill="white"/>
<path opacity="0.4" d="M230.481 62.1787V64.3834L239.674 69.6704V67.4862L230.481 62.1787Z" fill="white"/>
<path opacity="0.4" d="M230.481 66.1797V68.3639L239.674 73.6714V71.4668L230.481 66.1797Z" fill="white"/>
<path opacity="0.4" d="M299.812 112.314V110.13L243.126 77.4482V79.6325L299.812 112.314Z" fill="white"/>
<path opacity="0.4" d="M230.481 70.1807V72.3649L239.674 77.652V75.4677L230.481 70.1807Z" fill="white"/>
<path opacity="0.4" d="M230.481 74.1611V76.3454L239.674 81.6529V79.4482L230.481 74.1611Z" fill="white"/>
<path opacity="0.4" d="M299.812 116.315V114.131L243.126 81.4492V83.6335L299.812 116.315Z" fill="white"/>
<path opacity="0.4" d="M230.481 86.1445V88.3288L239.674 93.6158V91.4316L230.481 86.1445Z" fill="white"/>
<path opacity="0.4" d="M230.481 90.125V92.3092L239.674 97.6167V95.4325L230.481 90.125Z" fill="white"/>
<path opacity="0.4" d="M230.481 106.108V108.293L239.674 113.58V111.395L230.481 106.108Z" fill="white"/>
<path opacity="0.4" d="M230.481 110.089V112.273L239.674 117.56V115.376L230.481 110.089Z" fill="white"/>
<path opacity="0.4" d="M278.874 137.994L243.126 117.377V119.561L278.874 140.179V137.994Z" fill="white"/>
<path opacity="0.4" d="M280.773 139.076V141.26L299.812 152.243V150.059L280.773 139.076Z" fill="white"/>
<path opacity="0.4" d="M261.082 123.746L243.126 113.376V115.56L261.082 125.93V123.746Z" fill="white"/>
<path opacity="0.4" d="M262.981 124.828V127.012L299.812 148.242V146.058L262.981 124.828Z" fill="white"/>
<path opacity="0.4" d="M294.971 131.299V133.483L299.812 136.259V134.075L294.971 131.299Z" fill="white"/>
<path opacity="0.4" d="M268.599 112.089L243.126 97.4121V99.5963L268.599 114.274V112.089Z" fill="white"/>
<path opacity="0.4" d="M258.16 74.1406L243.126 65.4854V67.6696L258.16 76.3249V74.1406Z" fill="white"/>
<path opacity="0.4" d="M282.796 88.3485L260.04 75.2227V77.4069L282.796 90.5327V88.3485Z" fill="white"/>
<path opacity="0.4" d="M269.538 84.6946L253.503 75.4678V77.652L269.538 86.8789V84.6946Z" fill="white"/>
<path opacity="0.4" d="M286.35 94.3908L271.418 85.7764V87.9606L286.35 96.5751V94.3908Z" fill="white"/>
<path opacity="0.4" d="M288.229 95.4727V97.6569L299.812 104.332V102.148L288.229 95.4727Z" fill="white"/>
<path opacity="0.4" d="M246.088 75.1621V77.3463L258.16 84.3073V82.1231L246.088 75.1621Z" fill="white"/>
<path opacity="0.4" d="M295.093 103.413L260.04 83.2246V85.4088L295.093 105.598V103.413Z" fill="white"/>
<path opacity="0.4" d="M275.013 103.822L252.114 90.6348V92.819L275.013 106.006V103.822Z" fill="white"/>
<path opacity="0.4" d="M295.092 115.397L276.912 104.925V107.109L295.092 117.581V115.397Z" fill="white"/>
<path opacity="0.4" d="M293.071 126.216L270.479 113.192V115.377L293.071 128.4V126.216Z" fill="white"/>
<path opacity="0.4" d="M280.773 123.113V125.298L293.071 132.381V130.197L280.773 123.113Z" fill="white"/>
<path opacity="0.4" d="M247.559 103.965L243.126 101.413V103.597L247.559 106.149V103.965Z" fill="white"/>
<path opacity="0.4" d="M255.853 108.742V110.926L278.874 124.195V122.011L255.853 108.742Z" fill="white"/>
<path opacity="0.4" d="M253.972 107.66L249.438 105.047V107.231L253.972 109.844V107.66Z" fill="white"/>
<path opacity="0.4" d="M274.624 123.562L249.438 109.048V111.232L274.624 125.746V123.562Z" fill="white"/>
</g>
<g opacity="0.4">
<path opacity="0.4" d="M279.466 22.0465L241.369 0V1.93927L279.466 23.9858V22.0465Z" fill="white"/>
<path opacity="0.4" d="M241.369 5.73615L299.812 39.5204V37.5811L241.369 3.79688V5.73615Z" fill="white"/>
<path opacity="0.4" d="M282.02 23.4756V25.4149L299.812 35.7236V33.7844L282.02 23.4756Z" fill="white"/>
<path opacity="0.4" d="M279.466 29.4566L241.369 7.41016V9.34943L279.466 31.3959V29.4566Z" fill="white"/>
<path opacity="0.4" d="M241.369 13.1668L299.812 46.9306V44.9913L241.369 11.2275V13.1668Z" fill="white"/>
<path opacity="0.4" d="M282.02 32.8251L299.812 43.1339V41.1946L282.02 30.9062V32.8251Z" fill="white"/>
<path opacity="0.4" d="M279.466 41.7047L241.369 19.6582V21.5975L279.466 43.644V41.7047Z" fill="white"/>
<path opacity="0.4" d="M241.369 25.4149L299.812 59.1786V57.2394L241.369 23.4756V25.4149Z" fill="white"/>
<path opacity="0.4" d="M282.02 45.0732L299.812 55.3819V53.4427L282.02 43.1543V45.0732Z" fill="white"/>
<path opacity="0.4" d="M279.466 49.1354L241.369 27.0889V29.0281L279.466 51.0746V49.1354Z" fill="white"/>
<path opacity="0.4" d="M241.369 32.825L299.812 66.6092V64.6699L241.369 30.8857V32.825Z" fill="white"/>
<path opacity="0.4" d="M282.02 52.5037L299.812 62.7921V60.8732L282.02 50.5645V52.5037Z" fill="white"/>
<path opacity="0.4" d="M279.466 61.3834L241.369 39.3369V41.2762L279.466 63.3227V61.3834Z" fill="white"/>
<path opacity="0.4" d="M241.369 45.0731L299.812 78.8573V76.918L241.369 43.1338V45.0731Z" fill="white"/>
<path opacity="0.4" d="M282.02 64.7518L299.812 75.0401V73.1009L282.02 62.8125V64.7518Z" fill="white"/>
<path opacity="0.4" d="M279.466 68.7936L241.369 46.7471V48.6863L279.466 70.7328V68.7936Z" fill="white"/>
<path opacity="0.4" d="M241.369 52.4832L299.812 86.2674V84.3282L241.369 50.5439V52.4832Z" fill="white"/>
<path opacity="0.4" d="M282.02 72.1619L299.812 82.4707V80.5314L282.02 70.2227V72.1619Z" fill="white"/>
</g>
<path opacity="0.2" d="M176.696 49.8292L148.241 33.4985C147.927 33.3021 147.565 33.1947 147.195 33.1879C146.825 33.181 146.46 33.2748 146.138 33.4593C145.817 33.6438 145.553 33.9121 145.372 34.2354C145.192 34.5588 145.103 34.925 145.115 35.2949V69.324C145.1 70.151 145.308 70.9669 145.718 71.6855C146.127 72.4041 146.724 72.9988 147.444 73.4067L175.899 89.8599C176.218 90.0774 176.592 90.2 176.978 90.2136C177.364 90.2272 177.746 90.1313 178.08 89.9368C178.413 89.7424 178.685 89.4575 178.863 89.1151C179.041 88.7727 179.118 88.3868 179.086 88.0023V53.9119C179.074 53.083 178.848 52.2712 178.429 51.5557C178.011 50.8402 177.413 50.2454 176.696 49.8292Z" fill="white"/>
<path d="M164.073 78.5302L126.772 57.0349C126.2 56.702 125.544 56.5388 124.883 56.5641C124.221 56.5894 123.58 56.8022 123.034 57.1778L114.863 61.8933L118.663 67.0578L120.093 68.6909V105.619C120.088 106.698 120.369 107.759 120.908 108.695C121.446 109.63 122.222 110.407 123.157 110.947L151.081 127.094L151.367 128.645L157.066 136.627L165.829 131.462C166.242 131.215 166.583 130.865 166.819 130.446C167.055 130.027 167.179 129.554 167.178 129.074V84.1643C167.203 83.0351 166.929 81.9193 166.383 80.9299C165.838 79.9405 165.041 79.1126 164.073 78.5302Z" fill="#F4767A"/>
<path d="M155.35 83.654L117.641 61.8933C117.223 61.6638 116.753 61.5466 116.276 61.553C115.799 61.5594 115.332 61.6893 114.921 61.9299C114.509 62.1705 114.167 62.5136 113.928 62.9258C113.689 63.338 113.56 63.8052 113.556 64.2816V109.436C113.553 110.517 113.838 111.58 114.379 112.515C114.921 113.451 115.701 114.227 116.64 114.764L154.39 136.586C154.821 136.832 155.309 136.961 155.805 136.96C156.301 136.959 156.788 136.828 157.218 136.581C157.648 136.333 158.006 135.977 158.255 135.548C158.504 135.119 158.636 134.632 158.639 134.136V89.2268C158.634 88.0899 158.327 86.9746 157.75 85.9953C157.172 85.016 156.343 84.208 155.35 83.654Z" fill="#ED5561"/>
<path d="M158.496 134.137V89.2274C158.478 88.4869 158.333 87.755 158.067 87.0636L166.81 82.0215C167.064 82.673 167.202 83.3638 167.218 84.0628V128.972C167.22 129.453 167.096 129.926 166.86 130.344C166.624 130.763 166.282 131.113 165.87 131.361L157.188 136.464C157.584 136.217 157.912 135.875 158.14 135.468C158.369 135.061 158.491 134.603 158.496 134.137Z" fill="#D8395A"/>
<path d="M122.441 83.5112L117.845 80.8574V97.3719L120.888 99.1274V93.2484L122.196 94.0037C122.766 94.4519 123.426 94.7716 124.131 94.9408C124.836 95.1099 125.57 95.1245 126.281 94.9835C127.241 94.5956 127.732 93.5137 127.732 91.7378C127.77 90.0913 127.299 88.4731 126.383 87.1039C125.373 85.6105 124.022 84.3789 122.441 83.5112ZM123.973 91.5336C123.243 91.6184 122.51 91.4131 121.93 90.9621L120.929 90.3905V85.4913L122.318 86.2874C123.044 86.6901 123.667 87.2562 124.136 87.9409C124.537 88.5832 124.742 89.3277 124.729 90.0843C124.688 90.9008 124.443 91.3907 123.973 91.5336Z" fill="white"/>
<path d="M138.395 99.1889L132.716 95.9024L132.737 89.4313L129.673 87.6758L129.632 104.19L132.675 105.946L132.696 98.8215L138.395 102.108L138.375 109.232L141.418 110.988L141.459 94.4734L138.416 92.7179L138.395 99.1889Z" fill="white"/>
<path d="M152.837 102.353C151.822 100.857 150.463 99.6253 148.874 98.7602L144.278 96.1064V112.621L147.322 114.376V108.518L148.629 109.273C149.202 109.715 149.863 110.03 150.568 110.195C151.273 110.361 152.005 110.374 152.715 110.233C153.675 109.845 154.165 108.783 154.165 106.987C154.207 105.343 153.744 103.726 152.837 102.353ZM150.325 106.803C149.593 106.878 148.861 106.665 148.282 106.211L147.281 105.64V100.74L148.67 101.536C149.4 101.933 150.024 102.501 150.488 103.19C150.891 103.839 151.097 104.59 151.081 105.354C151.121 106.15 150.876 106.64 150.325 106.803Z" fill="white"/>
<g opacity="0.4">
<path opacity="0.4" d="M75.9688 80.2041V82.3883L85.161 87.6958V85.5116L75.9688 80.2041Z" fill="white"/>
<path opacity="0.4" d="M75.9688 84.2051V86.3893L85.161 91.6764V89.4922L75.9688 84.2051Z" fill="white"/>
<path opacity="0.4" d="M75.9688 88.1855V90.3698L85.161 95.6773V93.493L75.9688 88.1855Z" fill="white"/>
<path opacity="0.4" d="M145.299 134.32V132.136L88.6133 99.4746V101.659L145.299 134.32Z" fill="white"/>
<path opacity="0.4" d="M75.9688 92.1865V94.3708L85.161 99.6578V97.4736L75.9688 92.1865Z" fill="white"/>
<path opacity="0.4" d="M75.9688 96.168V98.3726L85.161 103.66V101.475L75.9688 96.168Z" fill="white"/>
<path opacity="0.4" d="M145.299 138.321V136.137L88.6133 103.455V105.639L145.299 138.321Z" fill="white"/>
<path opacity="0.4" d="M75.9688 108.15V110.335L85.161 115.642V113.458L75.9688 108.15Z" fill="white"/>
<path opacity="0.4" d="M75.9688 112.151V114.336L85.161 119.623V117.438L75.9688 112.151Z" fill="white"/>
<path opacity="0.4" d="M75.9688 128.114V130.298L85.161 135.586V133.401L75.9688 128.114Z" fill="white"/>
<path opacity="0.4" d="M75.9688 132.095V134.279L85.161 139.586V137.402L75.9688 132.095Z" fill="white"/>
<path opacity="0.4" d="M124.361 160L88.6133 139.383V141.567L124.361 162.185V160Z" fill="white"/>
<path opacity="0.4" d="M126.261 161.082V163.266L145.299 174.249V172.064L126.261 161.082Z" fill="white"/>
<path opacity="0.4" d="M106.569 145.752L88.6133 135.402V137.587L106.569 147.936V145.752Z" fill="white"/>
<path opacity="0.4" d="M108.448 146.834V149.018L145.299 170.248V168.064L108.448 146.834Z" fill="white"/>
<path opacity="0.4" d="M140.458 153.305V155.489L145.299 158.286V156.101L140.458 153.305Z" fill="white"/>
<path opacity="0.4" d="M114.066 134.116L88.6133 119.418V121.602L114.066 136.3V134.116Z" fill="white"/>
<path opacity="0.4" d="M103.648 96.1475L88.6133 87.4922V89.6764L103.648 98.3317V96.1475Z" fill="white"/>
<path opacity="0.4" d="M128.283 110.354L105.527 97.249V99.4333L128.283 112.539V110.354Z" fill="white"/>
<path opacity="0.4" d="M115.026 106.701L98.9902 97.4736V99.6579L115.026 108.885V106.701Z" fill="white"/>
<path opacity="0.4" d="M131.838 116.397L116.905 107.803V109.987L131.838 118.581V116.397Z" fill="white"/>
<path opacity="0.4" d="M133.717 117.479V119.664L145.299 126.339V124.155L133.717 117.479Z" fill="white"/>
<path opacity="0.4" d="M91.5752 97.1885V99.3727L103.648 106.334V104.149L91.5752 97.1885Z" fill="white"/>
<path opacity="0.4" d="M140.581 125.42L105.527 105.231V107.416L140.581 127.625V125.42Z" fill="white"/>
<path opacity="0.4" d="M120.501 125.849L97.6016 112.642V114.826L120.501 128.033V125.849Z" fill="white"/>
<path opacity="0.4" d="M140.581 137.403L122.4 126.931V129.115L140.581 139.587V137.403Z" fill="white"/>
<path opacity="0.4" d="M138.558 148.222L115.966 135.198V137.382L138.558 150.406V148.222Z" fill="white"/>
<path opacity="0.4" d="M126.261 145.119V147.303L138.558 154.407V152.223L126.261 145.119Z" fill="white"/>
<path opacity="0.4" d="M93.046 125.971L88.6133 123.419V125.603L93.046 128.155V125.971Z" fill="white"/>
<path opacity="0.4" d="M101.34 130.769V132.953L124.361 146.222V144.037L101.34 130.769Z" fill="white"/>
<path opacity="0.4" d="M99.4606 129.666L94.9258 127.053V129.237L99.4606 131.85V129.666Z" fill="white"/>
<path opacity="0.4" d="M120.113 145.568L94.9258 131.054V133.238L120.113 147.752V145.568Z" fill="white"/>
</g>
<path opacity="0.2" d="M349.9 108.62L321.445 92.289C321.129 92.0915 320.766 91.9839 320.394 91.9778C320.021 91.9717 319.655 92.0673 319.333 92.2543C319.011 92.4414 318.747 92.7127 318.568 93.039C318.389 93.3653 318.303 93.7342 318.319 94.1058V128.135C318.306 128.959 318.513 129.772 318.918 130.49C319.324 131.207 319.914 131.804 320.628 132.218L349.083 148.65C349.4 148.873 349.775 149 350.162 149.017C350.549 149.035 350.933 148.941 351.27 148.749C351.606 148.556 351.881 148.272 352.061 147.929C352.242 147.586 352.321 147.199 352.29 146.813V112.764C352.287 111.925 352.065 111.101 351.646 110.374C351.227 109.648 350.625 109.043 349.9 108.62Z" fill="white"/>
<path opacity="0.2" d="M388.752 42.8478L360.297 26.517C359.983 26.3207 359.622 26.2133 359.252 26.2064C358.881 26.1995 358.516 26.2933 358.195 26.4779C357.874 26.6624 357.609 26.9307 357.429 27.254C357.249 27.5773 357.16 27.9435 357.172 28.3134V62.2813C357.154 63.1087 357.361 63.9255 357.771 64.6445C358.181 65.3635 358.779 65.9578 359.501 66.364L387.956 82.8172C388.275 83.0347 388.649 83.1573 389.035 83.171C389.421 83.1846 389.803 83.0886 390.136 82.8941C390.47 82.6997 390.741 82.4148 390.92 82.0724C391.098 81.73 391.175 81.3441 391.143 80.9596V47.0733C391.163 46.219 390.951 45.3752 390.53 44.6313C390.11 43.8874 389.495 43.2711 388.752 42.8478Z" fill="white"/>
<path opacity="0.2" d="M476.61 220.812L448.155 204.481C447.841 204.285 447.479 204.177 447.109 204.17C446.739 204.163 446.374 204.257 446.053 204.442C445.731 204.626 445.467 204.895 445.286 205.218C445.106 205.541 445.017 205.907 445.029 206.277V240.327C445.011 241.154 445.219 241.971 445.629 242.69C446.039 243.409 446.636 244.003 447.358 244.41L475.793 260.863C476.112 261.086 476.488 261.214 476.878 261.231C477.267 261.248 477.653 261.153 477.99 260.958C478.327 260.762 478.602 260.475 478.78 260.129C478.959 259.783 479.036 259.393 479 259.005V225.119C479.035 224.251 478.831 223.39 478.409 222.63C477.988 221.871 477.365 221.241 476.61 220.812Z" fill="white"/>
<path opacity="0.2" d="M228.929 137.056L200.473 120.725C200.158 120.533 199.797 120.43 199.428 120.427C199.059 120.424 198.696 120.52 198.378 120.707C198.059 120.893 197.797 121.162 197.62 121.485C197.442 121.808 197.355 122.174 197.369 122.542V156.571C197.357 157.395 197.565 158.207 197.971 158.924C198.376 159.642 198.965 160.238 199.677 160.654L228.132 177.087C228.45 177.309 228.824 177.436 229.211 177.453C229.598 177.471 229.983 177.378 230.319 177.185C230.655 176.992 230.93 176.708 231.11 176.365C231.291 176.023 231.37 175.636 231.339 175.25V141.2C231.336 140.359 231.112 139.533 230.689 138.806C230.266 138.078 229.659 137.475 228.929 137.056Z" fill="white"/>
<path d="M121.828 416.781C114.27 416.781 116.742 411.106 116.742 411.106C105.548 407.697 100.032 409.595 100.032 409.595C98.3522 415.523 97.7503 421.705 98.255 427.845C98.255 429.009 99.0721 429.723 100.175 430.152C106.201 432.377 111.696 433.867 122.911 432.785C131.184 431.969 139.927 424.334 137.945 416.454C136.699 411.596 129.488 416.699 121.828 416.781Z" fill="#933E31"/>
<path d="M118.58 345.823C116.374 342.945 112.574 340.496 106.324 342.149L38.791 355.173L41.324 372.504C44.7136 376.548 49.2181 379.508 54.2774 381.014C59.3367 382.52 64.7275 382.507 69.7793 380.975C80.3874 378.021 90.4651 373.42 99.644 367.339L97.3152 415.229C104.056 417.042 111.237 416.179 117.354 412.82C118.927 411.861 120.398 365.727 120.888 353.887C121.059 352.457 120.943 351.007 120.546 349.623C120.15 348.239 119.481 346.947 118.58 345.823Z" fill="#1C75BC"/>
<path d="M154.246 430.621C146.402 430.621 148.976 424.722 148.976 424.722C137.333 421.19 131.613 423.15 131.613 423.15C129.88 429.305 129.251 435.719 129.754 442.093C129.778 442.665 129.992 443.212 130.362 443.648C130.732 444.084 131.237 444.385 131.797 444.502C138.068 446.829 143.767 448.36 155.411 447.238C163.99 446.401 173.08 438.46 171.017 430.294C169.69 425.232 162.193 430.539 154.246 430.621Z" fill="#9D4D36"/>
<path d="M77.4805 411.576L19.5078 378.077V386.243L77.5009 419.639L77.4805 411.576Z" fill="#BBCEE1"/>
<path d="M72.2103 347.824L19.5078 378.077L77.4805 411.575L130.244 381.282L72.2103 347.824Z" fill="white"/>
<path d="M130.244 381.282L77.4805 411.576L77.5009 419.639L130.244 389.141V381.282Z" fill="#A7BCCE"/>
<path d="M150.876 356.928C148.589 353.948 144.748 351.396 138.109 353.111L67.9824 366.625L70.6584 384.609C74.1762 388.808 78.8519 391.881 84.1038 393.445C89.3557 395.01 94.9519 394.996 100.196 393.407C111.213 390.342 121.678 385.561 131.205 379.24L128.835 428.906C135.828 430.801 143.284 429.908 149.63 426.415C151.285 425.415 152.817 377.525 153.307 365.175C153.622 362.213 152.748 359.247 150.876 356.928Z" fill="#2A87C6"/>
<path d="M25.5752 255.555L145.32 186.15C147.804 184.716 150.622 183.962 153.491 183.962C156.36 183.962 159.178 184.716 161.662 186.15L350.288 295.198C351.387 295.83 352.3 296.74 352.934 297.837C353.569 298.933 353.904 300.178 353.904 301.445C353.904 302.712 353.569 303.956 352.934 305.053C352.3 306.15 351.387 307.06 350.288 307.691L233.219 375.607C230.255 377.322 226.89 378.225 223.465 378.225C220.04 378.225 216.675 377.322 213.711 375.607L25.5139 266.803C24.5179 266.237 23.6906 265.416 23.1172 264.424C22.5438 263.433 22.2448 262.307 22.2511 261.161C22.2573 260.016 22.5686 258.893 23.1527 257.908C23.7369 256.923 24.573 256.111 25.5752 255.555Z" fill="#E8EBF5"/>
<path d="M25.595 266.742L213.792 375.545C216.756 377.261 220.121 378.164 223.546 378.164C226.971 378.164 230.336 377.261 233.3 375.545L350.369 307.63C351.449 307.009 352.348 306.118 352.979 305.044C353.609 303.971 353.949 302.751 353.964 301.506V310.61C353.957 311.855 353.623 313.075 352.996 314.15C352.368 315.225 351.47 316.116 350.389 316.734L233.3 384.609C230.336 386.324 226.971 387.227 223.546 387.227C220.121 387.227 216.756 386.324 213.792 384.609L25.595 275.806C24.5984 275.238 23.7717 274.414 23.2007 273.42C22.6296 272.426 22.3349 271.297 22.347 270.151V261.21C22.3503 262.337 22.6527 263.443 23.2233 264.414C23.7939 265.386 24.6123 266.189 25.595 266.742Z" fill="#A7BCCE"/>
<path d="M25.595 266.742L213.792 375.545C216.509 377.106 219.566 377.982 222.698 378.097V387.12C219.568 386.995 216.513 386.12 213.792 384.568L25.595 275.765C24.5984 275.197 23.7717 274.373 23.2007 273.379C22.6296 272.385 22.3349 271.256 22.347 270.11V261.169C22.3431 262.303 22.642 263.417 23.213 264.397C23.784 265.376 24.6063 266.186 25.595 266.742Z" fill="#BBCEE1"/>
<path d="M114.046 280.664L134.371 268.927C134.84 268.656 135.372 268.514 135.913 268.514C136.455 268.514 136.987 268.656 137.455 268.927L200.229 305.201C200.432 305.323 200.6 305.495 200.717 305.7C200.833 305.906 200.895 306.139 200.895 306.375C200.895 306.612 200.833 306.844 200.717 307.05C200.6 307.256 200.432 307.427 200.229 307.549L180.394 319.001C179.838 319.321 179.207 319.49 178.565 319.49C177.924 319.49 177.293 319.321 176.737 319.001L114.046 282.787C113.864 282.676 113.714 282.52 113.61 282.334C113.506 282.148 113.451 281.939 113.451 281.726C113.451 281.513 113.506 281.303 113.61 281.118C113.714 280.932 113.864 280.776 114.046 280.664Z" fill="#0F4463"/>
<path d="M114.045 282.787L176.737 319C177.293 319.321 177.923 319.49 178.565 319.49C179.207 319.49 179.838 319.321 180.393 319L200.228 307.549C200.436 307.429 200.608 307.256 200.726 307.048C200.845 306.84 200.905 306.604 200.902 306.365V308.773C200.894 309.008 200.828 309.236 200.711 309.439C200.593 309.642 200.428 309.813 200.228 309.937L180.393 321.328C179.838 321.648 179.207 321.817 178.565 321.817C177.923 321.817 177.293 321.648 176.737 321.328L114.045 285.196C113.858 285.091 113.704 284.936 113.6 284.749C113.495 284.561 113.444 284.349 113.453 284.134V281.726C113.453 281.938 113.507 282.148 113.611 282.333C113.715 282.519 113.864 282.675 114.045 282.787Z" fill="#0B3B56"/>
<path d="M134.146 272.213L136.679 270.743L139.58 272.397L137.047 273.866L134.146 272.213Z" fill="#1F5E77"/>
<path d="M137.741 274.295L140.295 272.805L143.175 274.479L140.642 275.948L137.741 274.295Z" fill="#1F5E77"/>
<path d="M141.357 276.356L143.89 274.887L146.791 276.561L144.258 278.03L141.357 276.356Z" fill="#1F5E77"/>
<path d="M144.952 278.439L147.506 276.969L150.406 278.622L147.853 280.092L144.952 278.439Z" fill="#1F5E77"/>
<path d="M148.567 280.521L151.121 279.031L154.001 280.705L151.468 282.175L148.567 280.521Z" fill="#1F5E77"/>
<path d="M152.184 282.583L154.717 281.113L157.617 282.787L155.084 284.257L152.184 282.583Z" fill="#1F5E77"/>
<path d="M155.778 284.665L158.332 283.195L161.212 284.849L158.679 286.319L155.778 284.665Z" fill="#1F5E77"/>
<path d="M159.395 286.747L161.928 285.257L164.828 286.931L162.295 288.4L159.395 286.747Z" fill="#1F5E77"/>
<path d="M162.989 288.809L165.543 287.339L168.423 289.013L165.89 290.483L162.989 288.809Z" fill="#1F5E77"/>
<path d="M166.605 290.892L169.159 289.422L172.039 291.075L169.506 292.545L166.605 290.892Z" fill="#1F5E77"/>
<path d="M170.221 292.953L172.754 291.483L175.654 293.157L173.121 294.627L170.221 292.953Z" fill="#1F5E77"/>
<path d="M173.815 295.035L176.369 293.565L179.249 295.239L176.716 296.689L173.815 295.035Z" fill="#1F5E77"/>
<path d="M179.965 295.627L182.865 297.301L180.332 298.771L177.432 297.117L179.965 295.627Z" fill="#1F5E77"/>
<path d="M133.738 275.785L130.857 274.111L133.39 272.642L136.291 274.316L133.738 275.785Z" fill="#1F5E77"/>
<path d="M139.886 276.377L137.353 277.847L134.452 276.193L137.006 274.724L139.886 276.377Z" fill="#1F5E77"/>
<path d="M143.502 278.459L140.969 279.929L138.068 278.275L140.601 276.785L143.502 278.459Z" fill="#1F5E77"/>
<path d="M147.097 280.541L144.564 282.011L141.663 280.337L144.216 278.867L147.097 280.541Z" fill="#1F5E77"/>
<path d="M150.713 282.604L148.18 284.073L145.279 282.42L147.812 280.95L150.713 282.604Z" fill="#1F5E77"/>
<path d="M154.328 284.686L151.775 286.155L148.874 284.502L151.427 283.012L154.328 284.686Z" fill="#1F5E77"/>
<path d="M157.924 286.768L155.391 288.237L152.49 286.564L155.044 285.094L157.924 286.768Z" fill="#1F5E77"/>
<path d="M161.539 288.829L159.006 290.299L156.105 288.646L158.638 287.176L161.539 288.829Z" fill="#1F5E77"/>
<path d="M165.135 290.911L162.602 292.381L159.701 290.727L162.255 289.237L165.135 290.911Z" fill="#1F5E77"/>
<path d="M168.75 292.994L166.217 294.464L163.316 292.79L165.849 291.32L168.75 292.994Z" fill="#1F5E77"/>
<path d="M172.366 295.056L169.813 296.526L166.912 294.872L169.466 293.402L172.366 295.056Z" fill="#1F5E77"/>
<path d="M175.961 297.138L173.428 298.608L170.527 296.954L173.06 295.464L175.961 297.138Z" fill="#1F5E77"/>
<path d="M176.676 297.546L179.576 299.199L177.043 300.69L174.143 299.016L176.676 297.546Z" fill="#1F5E77"/>
<path d="M130.449 277.684L127.548 276.03L130.101 274.561L132.982 276.214L130.449 277.684Z" fill="#1F5E77"/>
<path d="M136.598 278.296L134.065 279.766L131.164 278.092L133.697 276.622L136.598 278.296Z" fill="#1F5E77"/>
<path d="M134.759 280.174L137.312 278.704L140.213 280.358L137.659 281.827L134.759 280.174Z" fill="#1F5E77"/>
<path d="M143.809 282.44L141.276 283.909L138.375 282.256L140.928 280.766L143.809 282.44Z" fill="#1F5E77"/>
<path d="M147.424 284.523L144.891 285.992L141.99 284.318L144.523 282.849L147.424 284.523Z" fill="#1F5E77"/>
<path d="M151.02 286.584L148.487 288.054L145.586 286.4L148.139 284.931L151.02 286.584Z" fill="#1F5E77"/>
<path d="M154.635 288.666L152.102 290.136L149.201 288.482L151.734 286.992L154.635 288.666Z" fill="#1F5E77"/>
<path d="M158.25 290.748L155.697 292.218L152.796 290.544L155.349 289.074L158.25 290.748Z" fill="#1F5E77"/>
<path d="M161.846 292.81L159.313 294.279L156.412 292.626L158.966 291.156L161.846 292.81Z" fill="#1F5E77"/>
<path d="M165.461 294.893L162.928 296.362L160.027 294.709L162.56 293.219L165.461 294.893Z" fill="#1F5E77"/>
<path d="M169.057 296.975L166.524 298.444L163.623 296.771L166.176 295.301L169.057 296.975Z" fill="#1F5E77"/>
<path d="M167.238 298.853L169.771 297.383L172.672 299.036L170.139 300.506L167.238 298.853Z" fill="#1F5E77"/>
<path d="M173.387 299.444L176.288 301.118L173.735 302.588L170.834 300.914L173.387 299.444Z" fill="#1F5E77"/>
<path d="M127.16 279.603L124.26 277.929L126.813 276.459L129.693 278.133L127.16 279.603Z" fill="#1F5E77"/>
<path d="M127.875 280.011L130.408 278.521L133.309 280.194L130.776 281.664L127.875 280.011Z" fill="#1F5E77"/>
<path d="M131.47 282.072L134.023 280.603L136.903 282.276L134.37 283.746L131.47 282.072Z" fill="#1F5E77"/>
<path d="M135.086 284.154L137.639 282.685L140.52 284.338L137.987 285.808L135.086 284.154Z" fill="#1F5E77"/>
<path d="M138.681 286.237L141.234 284.747L144.135 286.421L141.581 287.891L138.681 286.237Z" fill="#1F5E77"/>
<path d="M142.297 288.299L144.85 286.829L147.731 288.503L145.198 289.973L142.297 288.299Z" fill="#1F5E77"/>
<path d="M145.912 290.381L148.445 288.911L151.346 290.565L148.813 292.034L145.912 290.381Z" fill="#1F5E77"/>
<path d="M149.508 292.463L152.061 290.973L154.941 292.647L152.408 294.116L149.508 292.463Z" fill="#1F5E77"/>
<path d="M153.123 294.524L155.656 293.055L158.557 294.729L156.024 296.198L153.123 294.524Z" fill="#1F5E77"/>
<path d="M156.718 296.606L159.271 295.137L162.172 296.79L159.618 298.26L156.718 296.606Z" fill="#1F5E77"/>
<path d="M160.334 298.689L162.887 297.199L165.768 298.873L163.235 300.343L160.334 298.689Z" fill="#1F5E77"/>
<path d="M163.949 300.751L166.482 299.281L169.383 300.955L166.85 302.425L163.949 300.751Z" fill="#1F5E77"/>
<path d="M170.098 301.363L172.979 303.017L170.446 304.487L167.545 302.833L170.098 301.363Z" fill="#1F5E77"/>
<path d="M123.871 281.501L120.971 279.848L123.524 278.357L126.404 280.031L123.871 281.501Z" fill="#1F5E77"/>
<path d="M124.565 281.909L127.119 280.439L130.02 282.093L127.487 283.563L124.565 281.909Z" fill="#1F5E77"/>
<path d="M128.182 283.991L130.735 282.521L133.615 284.175L131.082 285.645L128.182 283.991Z" fill="#1F5E77"/>
<path d="M131.797 286.053L134.33 284.583L137.231 286.257L134.698 287.727L131.797 286.053Z" fill="#1F5E77"/>
<path d="M135.393 288.135L137.946 286.665L140.826 288.339L138.293 289.809L135.393 288.135Z" fill="#1F5E77"/>
<path d="M139.008 290.218L141.561 288.728L144.441 290.401L141.908 291.871L139.008 290.218Z" fill="#1F5E77"/>
<path d="M142.603 292.279L145.156 290.81L148.057 292.483L145.503 293.953L142.603 292.279Z" fill="#1F5E77"/>
<path d="M146.219 294.361L148.772 292.892L151.652 294.545L149.119 296.015L146.219 294.361Z" fill="#1F5E77"/>
<path d="M149.834 296.443L152.367 294.953L155.268 296.627L152.735 298.097L149.834 296.443Z" fill="#1F5E77"/>
<path d="M153.43 298.505L155.983 297.035L158.863 298.709L156.33 300.179L153.43 298.505Z" fill="#1F5E77"/>
<path d="M157.045 300.588L159.578 299.118L162.479 300.772L159.946 302.241L157.045 300.588Z" fill="#1F5E77"/>
<path d="M160.641 302.67L163.194 301.18L166.095 302.854L163.541 304.323L160.641 302.67Z" fill="#1F5E77"/>
<path d="M166.809 303.262L169.69 304.936L167.157 306.405L164.256 304.731L166.809 303.262Z" fill="#1F5E77"/>
<path d="M120.215 280.276L123.115 281.93L120.582 283.4L117.682 281.746L120.215 280.276Z" fill="#1F5E77"/>
<path d="M126.711 284.012L124.178 285.482L121.277 283.808L123.831 282.338L126.711 284.012Z" fill="#1F5E77"/>
<path d="M130.326 286.094L127.793 287.564L124.893 285.89L127.426 284.42L130.326 286.094Z" fill="#1F5E77"/>
<path d="M133.941 288.155L131.408 289.625L128.508 287.972L131.041 286.481L133.941 288.155Z" fill="#1F5E77"/>
<path d="M137.537 290.238L135.004 291.708L132.104 290.034L134.657 288.564L137.537 290.238Z" fill="#1F5E77"/>
<path d="M141.152 292.3L138.619 293.77L135.719 292.116L138.252 290.646L141.152 292.3Z" fill="#1F5E77"/>
<path d="M141.868 292.729L145.463 294.79H145.484L146.178 295.199L149.079 296.872L150.549 297.709L152.694 298.934L154.962 300.261L159.19 302.69L156.657 304.16L152.245 301.608L150.141 300.424L147.955 299.159L146.525 298.342H146.546L143.686 296.709L142.93 296.26L139.314 294.198L141.868 292.729Z" fill="#1F5E77"/>
<path d="M162.785 304.752L160.252 306.222L157.352 304.568L159.905 303.099L162.785 304.752Z" fill="#1F5E77"/>
<path d="M166.4 306.834L163.867 308.304L160.967 306.65L163.5 305.16L166.4 306.834Z" fill="#1F5E77"/>
<path d="M184.643 301.261L187.176 299.791L190.076 301.444L187.543 302.914L184.643 301.261Z" fill="#1F5E77"/>
<path d="M188.258 303.344L190.791 301.854L193.691 303.527L191.138 304.997L188.258 303.344Z" fill="#1F5E77"/>
<path d="M191.854 305.405L194.407 303.936L197.287 305.609L194.754 307.079L191.854 305.405Z" fill="#1F5E77"/>
<path d="M186.787 303.363L184.254 304.833L181.354 303.159L183.886 301.689L186.787 303.363Z" fill="#1F5E77"/>
<path d="M190.383 305.426L187.85 306.896L184.949 305.242L187.503 303.772L190.383 305.426Z" fill="#1F5E77"/>
<path d="M193.998 307.508L191.465 308.978L188.564 307.324L191.097 305.834L193.998 307.508Z" fill="#1F5E77"/>
<path d="M183.498 305.262L180.945 306.732L178.064 305.078L180.597 303.588L183.498 305.262Z" fill="#1F5E77"/>
<path d="M187.094 307.345L184.561 308.815L181.66 307.141L184.214 305.671L187.094 307.345Z" fill="#1F5E77"/>
<path d="M190.709 309.406L188.176 310.876L185.275 309.223L187.808 307.753L190.709 309.406Z" fill="#1F5E77"/>
<path d="M174.756 306.977L177.309 305.507L180.21 307.16L177.657 308.63L174.756 306.977Z" fill="#1F5E77"/>
<path d="M178.371 309.059L180.904 307.568L183.805 309.242L181.272 310.712L178.371 309.059Z" fill="#1F5E77"/>
<path d="M181.967 311.121L184.52 309.651L187.421 311.325L184.867 312.795L181.967 311.121Z" fill="#1F5E77"/>
<path d="M171.467 308.875L174.02 307.405L176.9 309.079L174.367 310.549L171.467 308.875Z" fill="#1F5E77"/>
<path d="M175.082 310.957L177.615 309.487L180.516 311.141L177.983 312.611L175.082 310.957Z" fill="#1F5E77"/>
<path d="M178.678 313.04L181.231 311.55L184.132 313.224L181.578 314.693L178.678 313.04Z" fill="#1F5E77"/>
<path d="M173.611 310.978L171.078 312.447L168.178 310.794L170.731 309.324L173.611 310.978Z" fill="#1F5E77"/>
<path d="M177.228 313.06L174.695 314.529L171.794 312.856L174.327 311.386L177.228 313.06Z" fill="#1F5E77"/>
<path d="M159.129 261.19L179.127 249.595C179.541 249.349 180.014 249.219 180.496 249.219C180.978 249.219 181.45 249.349 181.864 249.595L229.297 276.969C229.47 277.078 229.612 277.228 229.711 277.407C229.81 277.585 229.862 277.786 229.862 277.99C229.862 278.194 229.81 278.395 229.711 278.573C229.612 278.752 229.47 278.902 229.297 279.011L209.748 290.34C209.256 290.631 208.695 290.785 208.124 290.785C207.552 290.785 206.991 290.631 206.5 290.34L159.129 263.027C158.973 262.93 158.844 262.795 158.754 262.634C158.665 262.473 158.618 262.292 158.618 262.108C158.618 261.925 158.665 261.744 158.754 261.583C158.844 261.422 158.973 261.287 159.129 261.19Z" fill="#1F5E77"/>
<path d="M159.129 263.048L206.5 290.361C206.991 290.652 207.552 290.805 208.124 290.805C208.695 290.805 209.256 290.652 209.748 290.361L229.297 279.031C229.476 278.923 229.625 278.77 229.729 278.588C229.833 278.406 229.888 278.2 229.889 277.99V280.501C229.888 280.708 229.833 280.911 229.729 281.09C229.625 281.269 229.476 281.418 229.297 281.522L209.748 292.749C209.254 293.034 208.694 293.184 208.124 293.184C207.554 293.184 206.993 293.034 206.5 292.749L159.129 265.415C158.966 265.319 158.831 265.182 158.738 265.017C158.645 264.852 158.596 264.666 158.598 264.476V262.129C158.6 262.315 158.65 262.497 158.743 262.658C158.836 262.819 158.969 262.953 159.129 263.048Z" fill="#07304B"/>
<path d="M159.129 263.048L206.5 290.361C206.947 290.622 207.452 290.77 207.971 290.789V293.219C207.454 293.206 206.949 293.066 206.5 292.81L159.129 265.477C158.966 265.38 158.831 265.243 158.738 265.078C158.645 264.913 158.596 264.727 158.598 264.538V262.129C158.6 262.315 158.65 262.497 158.743 262.658C158.836 262.819 158.969 262.953 159.129 263.048Z" fill="#0B3B56"/>
<path d="M210.993 263.007L174.143 241.675V259.924L210.993 281.236V263.007Z" fill="#0F4463"/>
<path d="M179.27 238.734L174.143 241.674L210.993 263.006L216.141 260.046L179.27 238.734Z" fill="#07304B"/>
<path d="M216.142 260.047L210.994 263.007V281.236L216.142 278.256V260.047Z" fill="#07304B"/>
<path d="M136.863 148.793L248.928 213.748V296.137L136.863 230.937V148.793Z" fill="url(#paint0_linear_551_23828)"/>
<path d="M248.927 213.748L252.645 211.482V293.891L248.927 296.137V213.748Z" fill="#07304B"/>
<path d="M136.863 148.794L140.683 146.589L252.645 211.483L248.928 213.749L136.863 148.794Z" fill="#1F5E77"/>
<path d="M136.863 148.813V230.957L248.927 296.158V213.749L136.863 148.813ZM246.333 291.544L139.519 229.467V153.406L246.333 215.28V291.544Z" fill="#0B3B56"/>
<path d="M95.3756 250.534C94.2112 262.312 85.5296 271.09 75.9696 270.151C66.4097 269.212 59.6278 258.903 60.7922 247.125C61.9565 235.346 70.6381 226.589 80.1777 227.528C89.7172 228.467 96.5399 238.776 95.3756 250.534Z" fill="#FED4BD"/>
<path d="M109.654 277.969C109.654 277.969 113.739 278.97 115.251 279.112C116.763 279.255 122.155 280.398 124.382 279.725C126.609 279.051 122.339 277.561 121.379 276.806C120.419 276.05 120.399 274.111 122.646 273.438C124.893 272.764 129.999 273.07 132.696 272.682C135.392 272.294 130.02 264.149 125.628 263.394C121.548 262.576 117.31 263.151 113.596 265.027C109.858 266.864 107.815 269.988 106.079 270.58L109.654 277.969Z" fill="#F4C5A2"/>
<path d="M110.144 266.864L81.7297 273.989L80.2998 292.014L113.841 280.5C114.536 274.152 110.144 266.864 110.144 266.864Z" fill="#ED5561"/>
<path d="M40.0168 274.499C40.0168 274.499 32.1523 284.379 40.0168 298.015C40.0168 298.015 45.5118 305.609 60.5871 298.158L40.0168 274.499Z" fill="#ED5561"/>
<path d="M63.3659 262.946C63.3659 262.946 75.6223 262.109 85.2027 268.804C85.7401 270.139 86.656 271.289 87.8379 272.111C89.758 273.397 99.2976 277.215 99.2976 277.215C99.2976 277.215 95.0896 333.086 99.9104 360.297C99.9104 360.297 79.2175 376.444 46.7994 360.297C46.7994 360.297 42.0807 291.688 39.9971 274.561C40.0175 274.5 45.4716 267.845 63.3659 262.946Z" fill="#DE495A"/>
<path d="M57.9727 355.173L0 321.675L19.5081 378.159L77.5012 411.576L57.9727 355.173Z" fill="#BBCEE1"/>
<path d="M6.39375 317.959L0 321.674L57.9727 355.173L64.4482 351.417L6.39375 317.959Z" fill="white"/>
<path d="M64.4481 351.417L57.9727 355.173L77.5012 411.575L84.0379 407.819L64.4481 351.417Z" fill="#A7BCCE"/>
<path d="M147.853 302.731C147.853 302.731 151.019 299.547 152.224 298.648C153.429 297.75 157.678 293.729 160.068 293.198C162.458 292.667 158.393 296.811 157.882 298.097C157.372 299.383 160.334 297.056 162.56 296.219C165.044 295.403 167.738 295.497 170.159 296.485C175.654 298.526 175.389 309.406 170.895 308.12C163.52 306.079 160.211 311.836 155.799 313.06C153.752 313.589 151.67 313.971 149.568 314.203L147.853 302.731Z" fill="#F4C5A2"/>
<path d="M99.2559 277.214L123.217 308.957L148.138 301.608C148.138 301.608 153.49 308.344 151.754 315.469L118.498 328.411L91.4731 298.709C91.4731 298.709 82.4646 279.847 99.2559 277.214Z" fill="#ED5561"/>
<path d="M85.9382 217.464C85.9382 217.464 87.7766 221.894 78.952 223.098C70.1274 224.302 59.2396 228.671 56.3594 237.979C54.5209 243.92 56.6453 250.227 59.6482 255.494C60.6533 257.299 61.8226 259.007 63.1413 260.597C67.6054 261.429 72.2198 260.639 76.1535 258.372C79.1595 256.151 81.5669 253.219 83.16 249.84C83.16 249.84 88.4098 252.024 90.044 247.655C91.2492 244.43 95.0487 243.573 97.1119 241.878C97.214 241.878 109.021 222.424 85.9382 217.464Z" fill="#9D4D36"/>
<path d="M414.98 386.507L376.557 364.236V378.607L414.98 400.817V386.507Z" fill="#BBCEE1"/>
<path d="M416.267 341.435L376.557 364.236L414.98 386.507L454.732 363.685L416.267 341.435Z" fill="white"/>
<path d="M454.732 363.686L414.98 386.508V400.818L454.732 377.832V363.686Z" fill="#A7BCCE"/>
<path d="M414.98 363.032L376.557 340.74V355.111L414.98 377.321V363.032Z" fill="#BBCEE1"/>
<path d="M416.267 317.938L376.557 340.74L414.98 363.032L454.732 340.189L416.267 317.938Z" fill="white"/>
<path d="M454.732 340.189L414.98 363.032V377.321L454.732 354.336V340.189Z" fill="#A7BCCE"/>
<path d="M350.001 424.109L311.598 401.817V416.188L350.021 438.398L350.001 424.109Z" fill="#BBCEE1"/>
<path d="M351.308 379.016L311.598 401.817L350.001 424.109L389.773 401.266L351.308 379.016Z" fill="white"/>
<path d="M389.773 401.267L350.001 424.109L350.021 438.399L389.773 415.413V401.267Z" fill="#A7BCCE"/>
<path d="M350.001 400.613L311.598 378.342V392.692L350.021 414.923L350.001 400.613Z" fill="#BBCEE1"/>
<path d="M351.308 355.54L311.598 378.342L350.001 400.613L389.773 377.791L351.308 355.54Z" fill="white"/>
<path d="M389.773 377.791L350.001 400.613L350.021 414.923L389.773 391.937V377.791Z" fill="#A7BCCE"/>
<path d="M285.043 461.69L246.64 439.419V453.77L285.043 476V461.69Z" fill="#BBCEE1"/>
<path d="M286.35 416.617L246.64 439.419L285.043 461.69L324.815 438.868L286.35 416.617Z" fill="white"/>
<path d="M324.815 438.868L285.043 461.69V476L324.815 453.015V438.868Z" fill="#A7BCCE"/>
<path d="M285.043 438.194L246.64 415.923V430.294L285.043 452.504V438.194Z" fill="#BBCEE1"/>
<path d="M286.35 393.122L246.64 415.924L285.043 438.195L324.815 415.373L286.35 393.122Z" fill="white"/>
<path d="M324.815 415.372L285.043 438.194V452.504L324.815 429.519V415.372Z" fill="#A7BCCE"/>
<path d="M297.033 424.15L294.623 422.742C292.806 423.448 290.903 423.908 288.965 424.109V426.151H283.102V424.109C281.164 423.903 279.262 423.443 277.444 422.742L275.054 424.15L270.968 421.741L273.379 420.353C272.311 419.495 271.493 418.368 271.009 417.087H267.618V413.678H270.846C271.316 412.401 272.12 411.273 273.174 410.412L270.846 409.106L274.931 406.697L277.342 408.085C279.156 407.397 281.05 406.945 282.979 406.738V404.696H288.842V406.738C290.784 406.945 292.693 407.398 294.521 408.085L296.911 406.697L300.996 409.106L298.586 410.494C299.658 411.348 300.477 412.477 300.955 413.76H304.346V417.148H301.078C300.608 418.426 299.804 419.553 298.749 420.415L301.16 421.803L297.033 424.15ZM280.569 418.537C282.256 419.392 284.121 419.838 286.013 419.838C287.905 419.838 289.77 419.392 291.457 418.537C294.439 416.781 294.419 413.964 291.457 412.229C289.773 411.374 287.912 410.928 286.023 410.928C284.135 410.928 282.273 411.374 280.589 412.229C277.587 413.964 277.607 416.781 280.589 418.537" fill="#1C75BC"/>
<path d="M354.23 367.932L357.969 375.893L361.707 383.875L347.918 381.731L334.13 379.608L344.18 373.77L354.23 367.932Z" fill="#EF4136"/>
<path d="M401.233 338.495C399.19 337.291 400.089 335.556 404.052 333.249C405.674 332.293 407.44 331.604 409.281 331.208C410.539 330.861 411.88 330.977 413.06 331.534C413.465 331.752 413.809 332.068 414.061 332.453C414.259 332.779 414.417 333.129 414.531 333.494L418.167 332.596C417.958 332.011 417.632 331.476 417.207 331.024C416.759 330.546 416.234 330.145 415.654 329.84C413.593 328.709 411.222 328.272 408.893 328.595C406.001 328.962 403.218 329.928 400.722 331.432C398.614 332.386 396.893 334.027 395.84 336.086C395.35 337.577 396.065 338.863 397.883 339.985C399.137 340.714 400.527 341.18 401.968 341.353L404.787 339.72C403.54 339.522 402.337 339.108 401.233 338.495Z" fill="#91A6B7"/>
<path d="M418.495 342.884C418.841 342.026 418.841 341.068 418.495 340.21C418.234 339.628 418.135 338.986 418.209 338.352C418.279 338.097 418.405 337.86 418.578 337.658C418.752 337.457 418.967 337.297 419.209 337.189C419.756 336.861 420.371 336.665 421.007 336.617C421.597 336.587 422.184 336.721 422.703 337.005C423.118 337.241 423.485 337.553 423.785 337.924C424.005 338.25 424.203 338.591 424.377 338.944L427.973 338.087C427.409 336.872 426.461 335.875 425.276 335.25C423.888 334.449 422.303 334.053 420.701 334.106C419.046 334.117 417.425 334.568 416.002 335.413C415.36 335.764 414.78 336.219 414.286 336.76C413.957 337.172 413.726 337.654 413.612 338.169C413.549 338.783 413.626 339.405 413.837 339.985C414.106 340.63 414.191 341.337 414.082 342.027C414.02 342.294 413.897 342.543 413.724 342.755C413.55 342.967 413.331 343.137 413.081 343.252C412.53 343.578 411.903 343.754 411.263 343.762C410.597 343.779 409.939 343.609 409.363 343.272C408.302 342.64 407.493 341.658 407.076 340.496L403.95 342.313C404.645 343.485 405.667 344.429 406.892 345.027C408.334 345.894 409.99 346.339 411.672 346.314C413.389 346.27 415.066 345.778 416.533 344.885C417.374 344.431 418.058 343.733 418.495 342.884Z" fill="#91A6B7"/>
<path d="M435.143 340.986C433.753 340.185 432.17 339.782 430.567 339.822C428.913 339.855 427.295 340.312 425.869 341.149C425.228 341.494 424.654 341.95 424.173 342.496C423.828 342.898 423.595 343.384 423.499 343.905C423.424 344.513 423.501 345.13 423.724 345.701C423.978 346.35 424.063 347.052 423.969 347.742C423.892 348.003 423.764 348.245 423.592 348.456C423.42 348.666 423.208 348.84 422.968 348.967C422.407 349.288 421.775 349.463 421.129 349.478C420.469 349.495 419.818 349.325 419.25 348.988C418.184 348.361 417.374 347.377 416.962 346.211L413.837 348.028C414.517 349.205 415.535 350.15 416.758 350.743C418.205 351.598 419.857 352.042 421.538 352.029C423.262 351.986 424.945 351.493 426.42 350.6C427.277 350.178 427.988 349.51 428.463 348.681C428.819 347.819 428.819 346.85 428.463 345.987C428.213 345.409 428.115 344.776 428.177 344.15C428.255 343.892 428.385 343.653 428.561 343.449C428.737 343.245 428.954 343.08 429.198 342.966C429.746 342.645 430.362 342.456 430.996 342.415C431.587 342.375 432.176 342.51 432.691 342.802C433.105 343.032 433.467 343.345 433.754 343.721C433.981 344.043 434.179 344.384 434.346 344.742L437.941 343.864C437.358 342.618 436.372 341.604 435.143 340.986Z" fill="#91A6B7"/>
<path d="M414.122 212.769L376.802 191.273C376.233 190.94 375.581 190.776 374.922 190.801C374.263 190.827 373.625 191.04 373.084 191.416L364.913 196.132L368.733 201.296L370.142 202.929V239.857C370.14 240.938 370.424 242.001 370.966 242.937C371.508 243.872 372.288 244.648 373.227 245.185L401.151 261.332L401.437 262.884L407.136 270.865L415.9 265.701C416.307 265.449 416.643 265.098 416.875 264.679C417.108 264.261 417.229 263.791 417.227 263.312V218.403C417.252 217.273 416.979 216.158 416.433 215.168C415.888 214.179 415.091 213.351 414.122 212.769Z" fill="#79FF68"/>
<path d="M405.401 217.893L367.651 196.133C367.233 195.903 366.763 195.786 366.286 195.792C365.809 195.799 365.342 195.929 364.931 196.169C364.519 196.41 364.177 196.753 363.938 197.165C363.698 197.577 363.57 198.044 363.566 198.521V243.757C363.56 244.842 363.842 245.908 364.384 246.848C364.926 247.788 365.708 248.567 366.65 249.105L404.379 270.907C404.812 271.152 405.3 271.28 405.797 271.278C406.294 271.277 406.782 271.146 407.213 270.899C407.644 270.652 408.003 270.296 408.255 269.868C408.506 269.44 408.642 268.954 408.649 268.457V223.344C408.627 222.232 408.316 221.144 407.747 220.189C407.177 219.233 406.369 218.442 405.401 217.893Z" fill="#50E85E"/>
<path d="M408.587 268.375V223.343C408.569 222.6 408.417 221.867 408.137 221.179L416.901 216.137C417.145 216.791 417.283 217.48 417.309 218.178V263.088C417.311 263.566 417.189 264.037 416.957 264.455C416.725 264.873 416.389 265.225 415.981 265.476L407.3 270.579C407.675 270.342 407.988 270.017 408.212 269.634C408.436 269.25 408.564 268.818 408.587 268.375Z" fill="#3CC743"/>
<path d="M456.734 122.97L419.413 101.454C418.839 101.126 418.184 100.966 417.523 100.991C416.863 101.016 416.222 101.226 415.675 101.597L407.504 106.333L411.324 111.477L412.733 113.11V150.038C412.727 151.123 413.01 152.189 413.552 153.129C414.094 154.069 414.876 154.848 415.818 155.386L443.742 171.513L444.028 173.064L449.727 181.046L458.49 175.902C458.9 175.654 459.238 175.303 459.471 174.884C459.704 174.465 459.824 173.993 459.818 173.514V128.604C459.854 127.475 459.587 126.358 459.044 125.367C458.502 124.376 457.704 123.549 456.734 122.97Z" fill="#9263C1"/>
<path d="M448.094 128.094L410.344 106.313C409.924 106.089 409.453 105.977 408.977 105.987C408.501 105.997 408.035 106.13 407.625 106.371C407.215 106.613 406.874 106.957 406.634 107.368C406.395 107.78 406.266 108.246 406.259 108.722V153.938C406.257 155.019 406.541 156.081 407.083 157.017C407.624 157.953 408.404 158.729 409.343 159.266L447.073 181.067C447.503 181.313 447.991 181.442 448.488 181.441C448.984 181.44 449.471 181.309 449.901 181.062C450.331 180.814 450.688 180.458 450.937 180.029C451.187 179.6 451.319 179.113 451.321 178.617V133.524C451.306 132.416 451.001 131.331 450.434 130.378C449.868 129.425 449.061 128.638 448.094 128.094Z" fill="#8444B2"/>
<path d="M451.26 178.556V133.524C451.252 132.783 451.106 132.049 450.831 131.36L459.594 126.318C459.83 126.974 459.961 127.663 459.982 128.36V173.269C459.988 173.748 459.868 174.221 459.635 174.639C459.402 175.058 459.064 175.409 458.654 175.658L449.952 180.761C450.33 180.524 450.646 180.201 450.873 179.817C451.101 179.434 451.233 179.001 451.26 178.556Z" fill="#7231A3"/>
<path d="M332.128 123.623L294.746 102.108C294.172 101.779 293.517 101.619 292.856 101.644C292.196 101.669 291.555 101.879 291.008 102.25L282.837 106.966L286.657 112.131L288.066 113.764V150.692C288.06 151.776 288.343 152.843 288.885 153.782C289.427 154.722 290.209 155.501 291.151 156.04L319.075 172.166L319.361 173.718L325.06 181.699L333.823 176.555C334.231 176.304 334.567 175.952 334.799 175.534C335.032 175.116 335.153 174.645 335.151 174.167V129.257C335.193 128.135 334.935 127.021 334.404 126.031C333.873 125.041 333.087 124.21 332.128 123.623Z" fill="#FFA8E1"/>
<path d="M323.344 128.748L285.594 106.987C285.175 106.757 284.703 106.639 284.224 106.647C283.746 106.654 283.277 106.786 282.865 107.029C282.453 107.272 282.111 107.618 281.874 108.033C281.636 108.448 281.51 108.917 281.509 109.396V154.53C281.503 155.614 281.786 156.681 282.327 157.621C282.869 158.56 283.651 159.339 284.593 159.878L322.323 181.68C322.753 181.926 323.241 182.055 323.738 182.054C324.234 182.053 324.721 181.922 325.151 181.674C325.581 181.426 325.938 181.07 326.188 180.641C326.437 180.213 326.569 179.726 326.572 179.23V134.321C326.582 133.188 326.288 132.073 325.72 131.093C325.152 130.113 324.332 129.303 323.344 128.748Z" fill="#FF7AD2"/>
<path d="M326.51 179.209V134.3C326.503 133.558 326.357 132.824 326.082 132.136L334.845 127.094C335.081 127.749 335.212 128.438 335.233 129.135V174.045C335.234 174.523 335.113 174.994 334.881 175.412C334.648 175.83 334.312 176.182 333.905 176.433L325.203 181.536C325.598 181.288 325.924 180.945 326.153 180.539C326.381 180.132 326.504 179.675 326.51 179.209Z" fill="#DE64C6"/>
<path d="M250.418 36.5398L213.057 15.1261C212.482 14.798 211.828 14.6375 211.167 14.6627C210.506 14.688 209.866 14.8981 209.318 15.269L201.147 20.0049L204.947 25.1491L206.377 26.7822V63.7101C206.369 64.7926 206.648 65.8579 207.187 66.7975C207.725 67.737 208.503 68.5171 209.441 69.0584L237.365 85.185L237.651 86.7364L243.35 94.718L252.114 89.5738C252.529 89.3295 252.872 88.98 253.109 88.5607C253.346 88.1413 253.467 87.6669 253.462 87.1855V42.276C253.518 41.1346 253.265 39.9992 252.729 38.9896C252.194 37.98 251.395 37.1337 250.418 36.5398Z" fill="#FCEC32"/>
<path d="M241.635 41.6635L203.885 19.8824C203.465 19.6584 202.994 19.5461 202.518 19.5563C202.042 19.5665 201.576 19.6989 201.166 19.9408C200.756 20.1827 200.415 20.5259 200.175 20.9375C199.936 21.3491 199.807 21.8153 199.8 22.2912V67.4457C199.798 68.5268 200.082 69.5893 200.624 70.525C201.165 71.4608 201.945 72.2366 202.884 72.7736L240.634 94.5751C241.065 94.8213 241.553 94.9504 242.049 94.9494C242.545 94.9485 243.033 94.8175 243.462 94.5697C243.892 94.3219 244.25 93.9658 244.499 93.5369C244.748 93.1081 244.881 92.6214 244.883 92.1255V47.216C244.89 46.0844 244.592 44.9719 244.02 43.995C243.449 43.0181 242.625 42.2128 241.635 41.6635Z" fill="#F5D012"/>
<path d="M244.821 92.1252V47.2157C244.803 46.4752 244.658 45.7433 244.392 45.0519L253.135 40.0098C253.387 40.6619 253.525 41.3523 253.544 42.0511V86.9606C253.549 87.4421 253.427 87.9165 253.191 88.3358C252.954 88.7552 252.61 89.1047 252.195 89.349L243.514 94.4523C243.906 94.2013 244.23 93.8578 244.458 93.452C244.686 93.0461 244.811 92.5905 244.821 92.1252Z" fill="#EAA10C"/>
<path d="M315.888 137.606C313.917 134.028 311.062 131.013 307.594 128.849C306.402 127.989 305.003 127.458 303.54 127.311C302.076 127.164 300.6 127.406 299.26 128.012C295.174 130.339 294.705 137.341 297.871 144.343L287.657 150.181L290.64 155.346L300.853 149.507C302.621 152.031 304.896 154.158 307.533 155.754C308.72 156.609 310.112 157.136 311.567 157.283C313.023 157.43 314.492 157.191 315.826 156.591C320.443 154.06 320.463 145.527 315.888 137.606ZM312.844 151.508C311.99 151.892 311.05 152.045 310.118 151.951C309.186 151.858 308.294 151.522 307.533 150.977C305.309 149.602 303.48 147.675 302.222 145.384C299.301 140.321 299.301 134.851 302.222 133.136C303.076 132.752 304.016 132.599 304.948 132.692C305.88 132.785 306.772 133.121 307.533 133.667C309.748 135.062 311.574 136.992 312.844 139.28C315.786 144.363 315.786 149.854 312.844 151.508Z" fill="white"/>
<path d="M211.607 45.5426C212.237 45.9044 212.814 46.3509 213.322 46.8695C213.894 47.441 214.466 48.033 215.038 48.6863L216.101 46.2571C214.827 44.7499 213.316 43.4605 211.627 42.4398C210.495 41.6934 209.163 41.3089 207.807 41.3374C207.277 41.3857 206.768 41.5685 206.328 41.8686C205.888 42.1687 205.532 42.5761 205.295 43.0521C204.652 44.3938 204.35 45.8733 204.416 47.3594C204.356 50.0304 204.959 52.6747 206.173 55.0552C207.33 57.2668 209.104 59.0961 211.28 60.3219C212.556 61.1281 213.991 61.6503 215.488 61.8529V58.7297C214.12 58.5185 212.799 58.0695 211.586 57.4028C209.033 55.933 207.746 53.3201 207.766 49.2374C207.609 47.8846 207.966 46.5221 208.767 45.4201C209.564 44.8077 210.422 44.8281 211.607 45.5426Z" fill="#8444B2"/>
<path d="M224.128 52.7888L221.84 51.4619L221.82 56.157L217.775 53.8095V56.4428L221.82 58.7903L221.8 63.4242L224.087 64.7306L224.108 60.1172L228.152 62.4443L228.173 59.811L224.108 57.4635L224.128 52.7888Z" fill="#8444B2"/>
<path d="M236.344 64.5269L236.365 59.8523L234.077 58.5254L234.056 63.2001L230.012 60.8729V63.5063L234.056 65.8538L234.036 70.4672L236.324 71.7941L236.344 67.1603L240.389 69.5078V66.8745L236.344 64.5269Z" fill="#8444B2"/>
<path d="M418.556 125.236C418.06 125.951 417.842 126.822 417.943 127.685V133.238C417.943 134.259 417.616 134.81 416.963 134.871C415.952 134.838 414.972 134.512 414.144 133.932V137.606C415.215 138.19 416.165 138.973 416.942 139.913C417.597 140.752 417.943 141.789 417.923 142.853V148.181C417.892 149.272 418.094 150.357 418.515 151.365C419.012 152.359 419.707 153.241 420.558 153.958C421.68 154.945 422.906 155.807 424.214 156.53V152.978C423.409 152.528 422.712 151.908 422.171 151.161C421.824 150.537 421.641 149.834 421.64 149.12V143.73C421.572 142.595 421.23 141.494 420.643 140.52C420.056 139.546 419.242 138.728 418.27 138.137V137.933C420.496 138.852 421.62 138.219 421.661 136.055V130.952C421.661 130.135 421.845 129.625 422.212 129.461C422.58 129.298 423.254 129.461 424.255 129.992V126.44C423.123 125.732 421.9 125.183 420.619 124.807C420.269 124.685 419.891 124.66 419.528 124.735C419.164 124.811 418.828 124.984 418.556 125.236Z" fill="white"/>
<path d="M439.657 147.997C439.032 147.207 438.694 146.228 438.697 145.221V139.648C438.745 138.039 438.256 136.459 437.308 135.157C435.981 133.57 434.348 132.265 432.508 131.319V134.871C433.315 135.31 434.013 135.923 434.55 136.668C434.903 137.29 435.087 137.994 435.082 138.709V143.812C435.149 144.983 435.494 146.12 436.087 147.132C436.68 148.143 437.504 148.999 438.493 149.63V149.834C437.717 149.414 436.806 149.318 435.96 149.569C435.368 149.855 435.061 150.508 435.061 151.61V156.877C435.061 157.693 434.877 158.204 434.53 158.388C434.183 158.571 433.468 158.388 432.487 157.836V161.388C433.893 162.431 435.579 163.029 437.329 163.103C438.248 162.919 438.718 161.96 438.718 160.204V154.876C438.718 153.774 439.045 153.162 439.678 153.06C440.69 153.084 441.672 153.411 442.497 153.999V150.243C441.42 149.675 440.458 148.914 439.657 147.997Z" fill="white"/>
<path d="M368.305 225.222L379.989 237.919L380.01 234.673L371.941 226.201L380.03 226.569V223.323L368.305 223.282V225.222Z" fill="#1F5E77"/>
<path d="M381.194 241.368L384.463 243.246L390.959 227.14L387.67 225.262L381.194 241.368Z" fill="#1F5E77"/>
<path d="M392.082 230.284V233.53L400.151 242.471L392.061 241.634L392.041 244.88L403.787 245.696V243.757L392.082 230.284Z" fill="#1F5E77"/>
<path d="M150.814 165.92V168.104L160.007 173.391V171.207L150.814 165.92Z" fill="#F5D012"/>
<path d="M150.814 169.9V172.085L160.007 177.392V175.208L150.814 169.9Z" fill="#EDF0F8"/>
<path d="M150.814 173.901V176.086L160.007 181.373V179.188L150.814 173.901Z" fill="#EDF0F8"/>
<path d="M220.146 220.036V217.852L163.439 185.17V187.354L220.146 220.036Z" fill="#EDF0F8"/>
<path d="M150.814 177.883V180.067L160.007 185.375V183.19L150.814 177.883Z" fill="#EDF0F8"/>
<path d="M150.814 181.884V184.068L160.007 189.355V187.171L150.814 181.884Z" fill="#EDF0F8"/>
<path d="M220.146 224.017V221.832L163.439 189.171V191.335L220.146 224.017Z" fill="#50E85E"/>
<path d="M150.814 193.846V196.03L160.007 201.337V199.153L150.814 193.846Z" fill="#EDF0F8"/>
<path d="M150.814 197.847V200.031L160.007 205.318V203.134L150.814 197.847Z" fill="#F5D012"/>
<path d="M150.814 213.811V215.995L160.007 221.302V219.098L150.814 213.811Z" fill="#EDF0F8"/>
<path d="M150.814 217.812V219.996L160.007 225.283V223.099L150.814 217.812Z" fill="#EDF0F8"/>
<path d="M199.208 245.696L163.439 225.078V227.262L199.208 247.88V245.696Z" fill="#50E85E"/>
<path d="M201.086 246.777V248.982L220.145 259.944V257.76L201.086 246.777Z" fill="#EDF0F8"/>
<path d="M181.415 231.447L163.439 221.098V223.282L181.415 233.632V231.447Z" fill="#EDF0F8"/>
<path d="M183.294 232.55V234.714L220.145 255.964V253.78L183.294 232.55Z" fill="#EDF0F8"/>
<path d="M215.283 239V241.184L220.145 243.981V241.797L215.283 239Z" fill="#EDF0F8"/>
<path d="M188.912 219.812L163.439 205.135V207.319L188.912 221.996V219.812Z" fill="#ED5561"/>
<path d="M178.474 181.863L163.439 173.188V175.372L178.474 184.047V181.863Z" fill="#EDF0F8"/>
<path d="M203.129 196.071L180.373 182.945V185.13L203.129 198.255V196.071Z" fill="#EDF0F8"/>
<path d="M189.851 192.417L173.836 183.17V185.354L189.851 194.601V192.417Z" fill="#EDF0F8"/>
<path d="M206.683 202.093L191.751 193.499V195.683L206.683 204.298V202.093Z" fill="#ED5561"/>
<path d="M208.562 203.195V205.38L220.145 212.055V209.87L208.562 203.195Z" fill="#EDF0F8"/>
<path d="M166.401 182.884V185.068L178.474 192.029V189.845L166.401 182.884Z" fill="#ED5561"/>
<path d="M215.406 211.136L180.373 190.927V193.111L215.406 213.32V211.136Z" fill="#EDF0F8"/>
<path d="M253.052 158.918C249.28 157.308 244.736 159.039 243.077 162.919L241.087 167.575C239.476 171.345 241.208 175.886 245.091 177.543C248.863 179.153 253.407 177.422 255.066 173.542L257.056 168.886C258.714 165.005 256.935 160.575 253.052 158.918ZM249.899 171.205C249.52 172.092 248.411 172.537 247.524 172.158C246.636 171.779 246.191 170.672 246.57 169.785L248.561 165.129C248.987 164.131 250.048 163.797 250.936 164.176C251.823 164.555 252.268 165.662 251.889 166.549L249.899 171.205Z" fill="#FFBB00"/>
<path d="M271.346 171.053C269.904 170.438 268.162 171.137 267.546 172.578L261.86 185.882C261.244 187.323 261.943 189.063 263.385 189.679C264.828 190.294 266.569 189.596 267.185 188.155L272.871 174.851C273.535 173.299 272.788 171.669 271.346 171.053Z" fill="#FFBB00"/>
<path d="M195.346 211.544L172.447 198.337V200.521L195.346 213.729V211.544Z" fill="#EDF0F8"/>
<path d="M215.406 223.098L197.226 212.626V214.81L215.406 225.282V223.098Z" fill="#EDF0F8"/>
<path d="M213.404 233.917L190.812 220.894V223.078L213.404 236.102V233.917Z" fill="#EDF0F8"/>
<path d="M201.086 230.814V232.999L213.404 240.103V237.918L201.086 230.814Z" fill="#50E85E"/>
<path d="M167.872 211.667L163.439 209.115V211.299L167.872 213.851V211.667Z" fill="#EDF0F8"/>
<path d="M176.186 216.464V218.648L199.207 231.917V229.733L176.186 216.464Z" fill="#EDF0F8"/>
<path d="M174.306 215.381L169.771 212.769V214.953L174.306 217.566V215.381Z" fill="#EDF0F8"/>
<path d="M194.958 231.264L169.771 216.75V218.934L194.958 233.448V231.264Z" fill="#EDF0F8"/>
<path d="M224.128 208.196V208.788L226.661 210.258V209.646L224.128 208.196Z" fill="#EDF0F8"/>
<path d="M224.128 209.299V209.891L226.661 211.361V210.748L224.128 209.299Z" fill="#EDF0F8"/>
<path d="M224.128 210.401V210.993L226.661 212.463V211.851L224.128 210.401Z" fill="#EDF0F8"/>
<path d="M243.228 223.098V222.506L227.602 213.504V214.096L243.228 223.098Z" fill="#EDF0F8"/>
<path d="M224.128 211.503V212.095L226.661 213.544V212.952L224.128 211.503Z" fill="#EDF0F8"/>
<path d="M224.128 212.585V213.197L226.661 214.647V214.055L224.128 212.585Z" fill="#EDF0F8"/>
<path d="M243.228 224.201V223.609L227.602 214.606V215.198L243.228 224.201Z" fill="#EDF0F8"/>
<path d="M224.128 215.893V216.505L226.661 217.954V217.362L224.128 215.893Z" fill="#EDF0F8"/>
<path d="M224.128 216.994V217.586L226.661 219.056V218.443L224.128 216.994Z" fill="#EDF0F8"/>
<path d="M224.128 221.384V221.996L226.661 223.466V222.854L224.128 221.384Z" fill="#EDF0F8"/>
<path d="M224.128 222.485V223.098L226.661 224.547V223.955L224.128 222.485Z" fill="#EDF0F8"/>
<path d="M237.468 230.182L227.602 224.507V225.099L237.468 230.774V230.182Z" fill="#EDF0F8"/>
<path d="M237.979 230.488V231.08L243.228 234.101V233.509L237.979 230.488Z" fill="#EDF0F8"/>
<path d="M232.565 226.262L227.602 223.404V223.996L232.565 226.854V226.262Z" fill="#EDF0F8"/>
<path d="M233.075 226.548V227.16L243.228 232.998V232.406L233.075 226.548Z" fill="#EDF0F8"/>
<path d="M241.9 228.345V228.937L243.228 229.712V229.1L241.9 228.345Z" fill="#EDF0F8"/>
<path d="M234.629 223.037L227.602 218.995V219.608L234.629 223.649V223.037Z" fill="#EDF0F8"/>
<path d="M231.748 212.586L227.602 210.197V210.81L231.748 213.198V212.586Z" fill="#EDF0F8"/>
<path d="M238.55 216.505L232.259 212.892V213.484L238.55 217.097V216.505Z" fill="#EDF0F8"/>
<path d="M234.873 215.505L230.461 212.953V213.545L234.873 216.097V215.505Z" fill="#EDF0F8"/>
<path d="M239.51 218.158L235.404 215.79V216.402L239.51 218.77V218.158Z" fill="#EDF0F8"/>
<path d="M240.041 218.464V219.076L243.228 220.913V220.301L240.041 218.464Z" fill="#EDF0F8"/>
<path d="M228.418 212.871V213.484L231.748 215.382V214.79L228.418 212.871Z" fill="#EDF0F8"/>
<path d="M241.921 220.648L232.259 215.096V215.688L241.921 221.261V220.648Z" fill="#EDF0F8"/>
<path d="M236.384 220.771L230.093 217.138V217.73L236.384 221.363V220.771Z" fill="#EDF0F8"/>
<path d="M241.921 223.955L236.916 221.077V221.669L241.921 224.547V223.955Z" fill="#EDF0F8"/>
<path d="M241.369 226.936L235.139 223.343V223.955L241.369 227.548V226.936Z" fill="#EDF0F8"/>
<path d="M237.979 226.078V226.691L241.369 228.63V228.038L237.979 226.078Z" fill="#EDF0F8"/>
<path d="M228.827 220.812L227.602 220.098V220.71L228.827 221.404V220.812Z" fill="#EDF0F8"/>
<path d="M231.114 222.118V222.731L237.467 226.385V225.772L231.114 222.118Z" fill="#EDF0F8"/>
<path d="M230.604 221.833L229.338 221.098V221.71L230.604 222.425V221.833Z" fill="#EDF0F8"/>
<path d="M236.283 226.201L229.338 222.2V222.813L236.283 226.814V226.201Z" fill="#EDF0F8"/>
<path d="M224.128 226.813V227.405L226.661 228.875V228.263L224.128 226.813Z" fill="#EDF0F8"/>
<path d="M224.128 227.896V228.508L226.661 229.978V229.365L224.128 227.896Z" fill="#EDF0F8"/>
<path d="M224.128 228.998V229.61L226.661 231.06V230.468L224.128 228.998Z" fill="#EDF0F8"/>
<path d="M243.228 241.715V241.123L227.602 232.121V232.713L243.228 241.715Z" fill="#EDF0F8"/>
<path d="M224.128 230.1V230.712L226.661 232.161V231.569L224.128 230.1Z" fill="#EDF0F8"/>
<path d="M224.128 231.202V231.815L226.661 233.264V232.672L224.128 231.202Z" fill="#EDF0F8"/>
<path d="M243.228 242.818V242.226L227.602 233.203V233.816L243.228 242.818Z" fill="#EDF0F8"/>
<path d="M224.128 234.51V235.102L226.661 236.572V235.959L224.128 234.51Z" fill="#EDF0F8"/>
<path d="M224.128 235.611V236.203L226.661 237.673V237.061L224.128 235.611Z" fill="#EDF0F8"/>
<path d="M224.128 240V240.612L226.661 242.062V241.47L224.128 240Z" fill="#EDF0F8"/>
<path d="M224.128 241.103V241.715L226.661 243.164V242.572L224.128 241.103Z" fill="#EDF0F8"/>
<path d="M237.468 248.799L227.602 243.104V243.716L237.468 249.391V248.799Z" fill="#EDF0F8"/>
<path d="M237.979 249.085V249.697L243.228 252.719V252.106L237.979 249.085Z" fill="#EDF0F8"/>
<path d="M232.565 244.859L227.602 242.021V242.613L232.565 245.471V244.859Z" fill="#EDF0F8"/>
<path d="M233.075 245.165V245.757L243.228 251.616V251.024L233.075 245.165Z" fill="#EDF0F8"/>
<path d="M241.9 246.941V247.554L243.228 248.309V247.717L241.9 246.941Z" fill="#EDF0F8"/>
<path d="M234.629 241.654L227.602 237.612V238.204L234.629 242.267V241.654Z" fill="#EDF0F8"/>
<path d="M231.748 231.202L227.602 228.813V229.405L231.748 231.794V231.202Z" fill="#EDF0F8"/>
<path d="M238.55 235.122L232.259 231.509V232.101L238.55 235.714V235.122Z" fill="#EDF0F8"/>
<path d="M234.873 234.101L230.461 231.569V232.161L234.873 234.713V234.101Z" fill="#EDF0F8"/>
<path d="M239.51 236.775L235.404 234.407V235.02L239.51 237.388V236.775Z" fill="#EDF0F8"/>
<path d="M240.041 237.081V237.673L243.228 239.51V238.918L240.041 237.081Z" fill="#EDF0F8"/>
<path d="M228.418 231.488V232.08L231.748 233.999V233.407L228.418 231.488Z" fill="#EDF0F8"/>
<path d="M241.921 239.265L232.259 233.692V234.305L241.921 239.857V239.265Z" fill="#EDF0F8"/>
<path d="M236.384 239.388L230.093 235.734V236.347L236.384 239.98V239.388Z" fill="#EDF0F8"/>
<path d="M241.921 242.573L236.916 239.674V240.286L241.921 243.165V242.573Z" fill="#EDF0F8"/>
<path d="M241.369 245.553L235.139 241.96V242.552L241.369 246.145V245.553Z" fill="#EDF0F8"/>
<path d="M237.979 244.695V245.287L241.369 247.247V246.655L237.979 244.695Z" fill="#EDF0F8"/>
<path d="M228.827 239.409L227.602 238.715V239.307L228.827 240.021V239.409Z" fill="#EDF0F8"/>
<path d="M231.114 240.735V241.327L237.467 245.002V244.389L231.114 240.735Z" fill="#EDF0F8"/>
<path d="M230.604 240.429L229.338 239.715V240.307L230.604 241.042V240.429Z" fill="#EDF0F8"/>
<path d="M236.283 244.818L229.338 240.817V241.409L236.283 245.41V244.818Z" fill="#EDF0F8"/>
<path d="M224.128 245.41V246.023L226.661 247.472V246.88L224.128 245.41Z" fill="#EDF0F8"/>
<path d="M224.128 246.513V247.125L226.661 248.574V247.982L224.128 246.513Z" fill="#EDF0F8"/>
<path d="M224.128 247.614V248.227L226.661 249.676V249.084L224.128 247.614Z" fill="#EDF0F8"/>
<path d="M243.228 260.332V259.72L227.602 250.718V251.33L243.228 260.332Z" fill="#EDF0F8"/>
<path d="M224.128 248.717V249.329L226.661 250.779V250.187L224.128 248.717Z" fill="#EDF0F8"/>
<path d="M224.128 249.819V250.411L226.661 251.881V251.269L224.128 249.819Z" fill="#EDF0F8"/>
<path d="M243.228 261.435V260.823L227.602 251.82V252.433L243.228 261.435Z" fill="#EDF0F8"/>
<path d="M224.128 253.126V253.718L226.661 255.167V254.575L224.128 253.126Z" fill="#EDF0F8"/>
<path d="M224.128 254.208V254.82L226.661 256.27V255.678L224.128 254.208Z" fill="#EDF0F8"/>
<path d="M224.128 258.617V259.209L226.661 260.679V260.067L224.128 258.617Z" fill="#EDF0F8"/>
<path d="M224.128 259.72V260.312L226.661 261.781V261.169L224.128 259.72Z" fill="#EDF0F8"/>
<path d="M237.468 267.396L227.602 261.721V262.333L237.468 268.008V267.396Z" fill="#EDF0F8"/>
<path d="M237.979 267.701V268.314L243.228 271.335V270.722L237.979 267.701Z" fill="#EDF0F8"/>
<path d="M232.565 263.476L227.602 260.618V261.231L232.565 264.088V263.476Z" fill="#EDF0F8"/>
<path d="M233.075 263.782V264.374L243.228 270.233V269.62L233.075 263.782Z" fill="#EDF0F8"/>
<path d="M241.9 265.558V266.15L243.228 266.925V266.333L241.9 265.558Z" fill="#EDF0F8"/>
<path d="M234.629 260.271L227.602 256.229V256.821L234.629 260.863V260.271Z" fill="#EDF0F8"/>
<path d="M231.748 249.819L227.602 247.431V248.023L231.748 250.411V249.819Z" fill="#EDF0F8"/>
<path d="M238.55 253.719L232.259 250.105V250.718L238.55 254.331V253.719Z" fill="#EDF0F8"/>
<path d="M234.873 252.718L230.461 250.166V250.778L234.873 253.31V252.718Z" fill="#EDF0F8"/>
<path d="M239.51 255.392L235.404 253.024V253.616L239.51 255.984V255.392Z" fill="#EDF0F8"/>
<path d="M240.041 255.678V256.29L243.228 258.127V257.535L240.041 255.678Z" fill="#EDF0F8"/>
<path d="M228.418 250.085V250.697L231.748 252.616V252.004L228.418 250.085Z" fill="#EDF0F8"/>
<path d="M241.921 257.882L232.259 252.31V252.902L241.921 258.474V257.882Z" fill="#EDF0F8"/>
<path d="M236.384 257.985L230.093 254.352V254.944L236.384 258.598V257.985Z" fill="#EDF0F8"/>
<path d="M241.921 261.169L236.916 258.291V258.883L241.921 261.782V261.169Z" fill="#EDF0F8"/>
<path d="M241.369 264.149L235.139 260.557V261.169L241.369 264.762V264.149Z" fill="#EDF0F8"/>
<path d="M237.979 263.312V263.904L241.369 265.864V265.252L237.979 263.312Z" fill="#EDF0F8"/>
<path d="M228.827 258.025L227.602 257.331V257.923L228.827 258.617V258.025Z" fill="#EDF0F8"/>
<path d="M231.114 259.353V259.945L237.467 263.599V263.007L231.114 259.353Z" fill="#EDF0F8"/>
<path d="M230.604 259.046L229.338 258.332V258.924L230.604 259.638V259.046Z" fill="#EDF0F8"/>
<path d="M236.283 263.435L229.338 259.434V260.026L236.283 264.027V263.435Z" fill="#EDF0F8"/>
<path d="M224.128 264.027V264.64L226.661 266.089V265.497L224.128 264.027Z" fill="#EDF0F8"/>
<path d="M224.128 265.13V265.722L226.661 267.192V266.579L224.128 265.13Z" fill="#EDF0F8"/>
<path d="M224.128 266.231V266.823L226.661 268.293V267.681L224.128 266.231Z" fill="#EDF0F8"/>
<path d="M243.228 278.95V278.337L227.602 269.335V269.947L243.228 278.95Z" fill="#EDF0F8"/>
<path d="M224.128 267.334V267.926L226.661 269.396V268.783L224.128 267.334Z" fill="#EDF0F8"/>
<path d="M224.128 268.437V269.029L226.661 270.478V269.886L224.128 268.437Z" fill="#EDF0F8"/>
<path d="M243.228 280.031V279.439L227.602 270.437V271.029L243.228 280.031Z" fill="#EDF0F8"/>
<path d="M224.128 271.723V272.335L226.661 273.784V273.192L224.128 271.723Z" fill="#EDF0F8"/>
<path d="M224.128 272.825V273.438L226.661 274.887V274.295L224.128 272.825Z" fill="#EDF0F8"/>
<path d="M241.9 284.175V284.767L243.228 285.543V284.93L241.9 284.175Z" fill="#EDF0F8"/>
<path d="M234.629 278.888L227.602 274.826V275.439L234.629 279.48V278.888Z" fill="#EDF0F8"/>
<path d="M231.748 268.416L227.602 266.027V266.64L231.748 269.028V268.416Z" fill="#EDF0F8"/>
<path d="M238.55 272.336L232.259 268.723V269.335L238.55 272.948V272.336Z" fill="#EDF0F8"/>
<path d="M234.873 271.335L230.461 268.783V269.396L234.873 271.927V271.335Z" fill="#EDF0F8"/>
<path d="M239.51 274.009L235.404 271.621V272.234L239.51 274.601V274.009Z" fill="#EDF0F8"/>
<path d="M240.041 274.295V274.907L243.228 276.745V276.132L240.041 274.295Z" fill="#EDF0F8"/>
<path d="M228.418 268.702V269.315L231.748 271.233V270.621L228.418 268.702Z" fill="#EDF0F8"/>
<path d="M241.921 276.479L232.259 270.927V271.519L241.921 277.092V276.479Z" fill="#EDF0F8"/>
<path d="M236.384 276.601L230.093 272.968V273.56L236.384 277.193V276.601Z" fill="#EDF0F8"/>
<path d="M241.921 279.787L236.916 276.908V277.5L241.921 280.399V279.787Z" fill="#EDF0F8"/>
<path d="M241.369 282.767L235.139 279.174V279.786L241.369 283.379V282.767Z" fill="#EDF0F8"/>
<path d="M237.979 281.909V282.522L241.369 284.461V283.869L237.979 281.909Z" fill="#EDF0F8"/>
<path d="M228.827 276.642L227.602 275.928V276.54L228.827 277.234V276.642Z" fill="#EDF0F8"/>
<path d="M231.114 277.949V278.562L237.467 282.216V281.624L231.114 277.949Z" fill="#EDF0F8"/>
<path d="M230.604 277.664L229.338 276.929V277.541L230.604 278.256V277.664Z" fill="#EDF0F8"/>
<path d="M236.283 282.031L229.338 278.03V278.643L236.283 282.644V282.031Z" fill="#EDF0F8"/>
<path d="M144.932 162.532L141.908 160.776C141.873 160.753 141.833 160.74 141.791 160.739C141.749 160.738 141.707 160.749 141.671 160.77C141.635 160.792 141.606 160.822 141.586 160.859C141.567 160.897 141.558 160.938 141.561 160.98V164.593C141.56 164.683 141.584 164.77 141.631 164.846C141.678 164.922 141.746 164.983 141.827 165.022L144.85 166.778C144.885 166.795 144.923 166.804 144.962 166.802C145.001 166.8 145.038 166.789 145.071 166.768C145.104 166.747 145.131 166.719 145.15 166.685C145.168 166.65 145.178 166.612 145.177 166.573V162.96C145.182 162.873 145.162 162.785 145.118 162.709C145.075 162.633 145.01 162.571 144.932 162.532Z" fill="#50E85E"/>
<path d="M144.932 167.941L141.909 166.206C141.875 166.184 141.836 166.172 141.796 166.17C141.756 166.168 141.717 166.177 141.681 166.196C141.646 166.215 141.616 166.243 141.595 166.277C141.574 166.311 141.562 166.35 141.562 166.39V170.003C141.56 170.092 141.585 170.18 141.632 170.256C141.679 170.332 141.747 170.393 141.827 170.432L144.85 172.187C144.885 172.205 144.924 172.213 144.962 172.212C145.001 172.21 145.039 172.198 145.072 172.178C145.105 172.157 145.132 172.129 145.15 172.094C145.169 172.06 145.178 172.022 145.177 171.983V168.391C145.18 168.301 145.158 168.212 145.115 168.133C145.072 168.054 145.009 167.988 144.932 167.941Z" fill="#50E85E"/>
<path d="M144.932 173.351L141.909 171.615C141.875 171.594 141.836 171.581 141.796 171.579C141.756 171.578 141.717 171.586 141.681 171.605C141.646 171.624 141.616 171.652 141.595 171.686C141.574 171.72 141.562 171.759 141.562 171.799V175.433C141.567 175.521 141.594 175.606 141.64 175.681C141.686 175.756 141.751 175.818 141.827 175.861L144.85 177.597C144.882 177.621 144.92 177.635 144.96 177.638C145 177.641 145.039 177.632 145.074 177.612C145.109 177.593 145.137 177.563 145.155 177.528C145.174 177.492 145.181 177.453 145.177 177.413V173.8C145.179 173.71 145.158 173.621 145.115 173.542C145.072 173.463 145.009 173.397 144.932 173.351Z" fill="#50E85E"/>
<path d="M144.932 178.781L141.908 177.025C141.873 177.002 141.833 176.989 141.791 176.988C141.749 176.987 141.707 176.998 141.671 177.019C141.635 177.041 141.606 177.071 141.586 177.109C141.567 177.146 141.558 177.187 141.561 177.229V180.842C141.56 180.932 141.584 181.019 141.631 181.095C141.678 181.171 141.746 181.232 141.827 181.271L144.85 183.027C144.885 183.044 144.923 183.053 144.962 183.051C145.001 183.049 145.038 183.038 145.071 183.017C145.104 182.996 145.131 182.968 145.15 182.934C145.168 182.9 145.178 182.861 145.177 182.822V179.209C145.182 179.122 145.162 179.034 145.118 178.958C145.075 178.882 145.01 178.82 144.932 178.781Z" fill="#50E85E"/>
<path d="M144.932 184.19L141.909 182.455C141.875 182.433 141.836 182.421 141.796 182.419C141.756 182.417 141.717 182.426 141.681 182.445C141.646 182.464 141.616 182.492 141.595 182.526C141.574 182.56 141.562 182.599 141.562 182.639V186.252C141.56 186.342 141.585 186.429 141.632 186.505C141.679 186.581 141.747 186.642 141.827 186.681L144.85 188.436C144.885 188.454 144.924 188.462 144.962 188.461C145.001 188.459 145.039 188.447 145.072 188.427C145.105 188.406 145.132 188.378 145.15 188.344C145.169 188.309 145.178 188.271 145.177 188.232V184.558C145.168 184.482 145.141 184.409 145.098 184.345C145.056 184.281 144.999 184.228 144.932 184.19Z" fill="#50E85E"/>
<path d="M144.932 189.6L141.909 187.864C141.875 187.843 141.836 187.83 141.796 187.828C141.756 187.827 141.717 187.835 141.681 187.854C141.646 187.873 141.616 187.901 141.595 187.935C141.574 187.969 141.562 188.008 141.562 188.048V191.682C141.567 191.77 141.594 191.855 141.64 191.93C141.686 192.004 141.751 192.067 141.827 192.11L144.85 193.846C144.883 193.863 144.92 193.871 144.957 193.87C144.994 193.87 145.031 193.86 145.063 193.842C145.096 193.823 145.123 193.797 145.143 193.766C145.163 193.735 145.175 193.699 145.177 193.662V190.049C145.18 189.959 145.158 189.87 145.115 189.791C145.072 189.712 145.009 189.646 144.932 189.6Z" fill="#50E85E"/>
<path d="M144.932 195.03L141.908 193.274C141.873 193.251 141.833 193.238 141.791 193.237C141.749 193.236 141.707 193.247 141.671 193.268C141.635 193.29 141.606 193.32 141.586 193.358C141.567 193.395 141.558 193.436 141.561 193.478V197.091C141.56 197.181 141.584 197.268 141.631 197.344C141.678 197.42 141.746 197.481 141.827 197.52L144.85 199.276C144.885 199.293 144.923 199.302 144.962 199.3C145.001 199.298 145.038 199.287 145.071 199.266C145.104 199.245 145.131 199.217 145.15 199.183C145.168 199.149 145.178 199.11 145.177 199.071V195.458C145.182 195.371 145.162 195.283 145.118 195.207C145.075 195.131 145.01 195.069 144.932 195.03Z" fill="#50E85E"/>
<path d="M144.932 200.439L141.909 198.684C141.873 198.667 141.833 198.659 141.794 198.661C141.754 198.663 141.716 198.675 141.682 198.695C141.648 198.715 141.619 198.743 141.598 198.777C141.577 198.81 141.565 198.848 141.562 198.888V202.501C141.56 202.59 141.585 202.678 141.632 202.754C141.679 202.83 141.747 202.891 141.827 202.93L144.85 204.685C144.885 204.703 144.924 204.711 144.962 204.71C145.001 204.708 145.039 204.696 145.072 204.676C145.105 204.655 145.132 204.626 145.15 204.592C145.169 204.558 145.178 204.52 145.177 204.481V200.888C145.182 200.798 145.161 200.709 145.118 200.629C145.075 200.55 145.01 200.484 144.932 200.439Z" fill="#50E85E"/>
<path d="M144.932 205.849L141.909 204.114C141.875 204.092 141.836 204.079 141.796 204.077C141.756 204.076 141.717 204.085 141.681 204.103C141.646 204.122 141.616 204.15 141.595 204.184C141.574 204.218 141.562 204.257 141.562 204.297V207.931C141.564 208.017 141.59 208.1 141.637 208.172C141.684 208.244 141.75 208.302 141.827 208.339L144.85 210.095C144.883 210.112 144.92 210.12 144.957 210.119C144.994 210.119 145.031 210.109 145.063 210.091C145.096 210.072 145.123 210.046 145.143 210.015C145.163 209.984 145.175 209.948 145.177 209.911V206.298C145.18 206.208 145.158 206.119 145.115 206.04C145.072 205.961 145.009 205.895 144.932 205.849Z" fill="#50E85E"/>
<path d="M144.932 211.279L141.908 209.523C141.873 209.5 141.833 209.487 141.791 209.486C141.749 209.485 141.707 209.496 141.671 209.517C141.635 209.539 141.606 209.569 141.586 209.607C141.567 209.644 141.558 209.685 141.561 209.727V213.34C141.562 213.429 141.588 213.516 141.635 213.591C141.681 213.667 141.748 213.728 141.827 213.769L144.85 215.504C144.882 215.528 144.92 215.543 144.96 215.545C144.999 215.548 145.039 215.539 145.074 215.52C145.109 215.5 145.137 215.471 145.155 215.435C145.173 215.4 145.181 215.36 145.177 215.32V211.707C145.182 211.62 145.162 211.532 145.118 211.456C145.075 211.38 145.01 211.318 144.932 211.279Z" fill="#50E85E"/>
<path d="M144.932 216.689L141.908 214.933C141.873 214.91 141.833 214.898 141.791 214.897C141.749 214.896 141.707 214.906 141.671 214.928C141.635 214.949 141.606 214.98 141.586 215.017C141.567 215.054 141.558 215.096 141.561 215.137V218.751C141.56 218.84 141.584 218.928 141.631 219.004C141.678 219.079 141.746 219.14 141.827 219.179L144.85 220.935C144.885 220.952 144.923 220.961 144.962 220.959C145.001 220.957 145.038 220.946 145.071 220.925C145.104 220.905 145.131 220.876 145.15 220.842C145.168 220.808 145.178 220.769 145.177 220.731V217.22C145.198 217.116 145.186 217.009 145.142 216.914C145.098 216.818 145.024 216.739 144.932 216.689Z" fill="#50E85E"/>
<path d="M144.932 222.098L141.909 220.363C141.875 220.341 141.836 220.328 141.796 220.326C141.756 220.325 141.717 220.334 141.681 220.352C141.646 220.371 141.616 220.399 141.595 220.433C141.574 220.467 141.562 220.506 141.562 220.546V224.18C141.564 224.266 141.59 224.349 141.637 224.421C141.684 224.493 141.75 224.551 141.827 224.588L144.85 226.344C144.885 226.361 144.923 226.37 144.962 226.368C145.001 226.366 145.039 226.355 145.072 226.334C145.105 226.314 145.132 226.285 145.15 226.251C145.169 226.217 145.178 226.178 145.177 226.14V222.547C145.18 222.457 145.158 222.368 145.115 222.289C145.072 222.21 145.009 222.144 144.932 222.098Z" fill="#50E85E"/>
<g opacity="0.4">
<path opacity="0.4" d="M287.085 181.721V183.905L296.277 189.192V187.008L287.085 181.721Z" fill="white"/>
<path opacity="0.4" d="M287.085 185.701V187.885L296.277 193.193V190.988L287.085 185.701Z" fill="white"/>
<path opacity="0.4" d="M287.085 189.702V191.886L296.277 197.173V194.989L287.085 189.702Z" fill="white"/>
<path opacity="0.4" d="M356.415 235.837V233.653L299.729 200.971V203.155L356.415 235.837Z" fill="white"/>
<path opacity="0.4" d="M287.085 193.683V195.867L296.277 201.174V198.99L287.085 193.683Z" fill="white"/>
<path opacity="0.4" d="M287.085 197.684V199.868L296.277 205.155V202.971L287.085 197.684Z" fill="white"/>
<path opacity="0.4" d="M356.415 239.817V237.633L299.729 204.972V207.135L356.415 239.817Z" fill="white"/>
<path opacity="0.4" d="M287.085 209.646V211.851L296.277 217.138V214.954L287.085 209.646Z" fill="white"/>
<path opacity="0.4" d="M287.085 213.647V215.832L296.277 221.119V218.935L287.085 213.647Z" fill="white"/>
<path opacity="0.4" d="M287.085 229.61V231.795L296.277 237.102V234.918L287.085 229.61Z" fill="white"/>
<path opacity="0.4" d="M287.085 233.611V235.796L296.277 241.083V238.898L287.085 233.611Z" fill="white"/>
<path opacity="0.4" d="M335.498 261.496L299.729 240.879V243.084L335.498 263.681V261.496Z" fill="white"/>
<path opacity="0.4" d="M337.377 262.578V264.783L356.415 275.745V273.561L337.377 262.578Z" fill="white"/>
<path opacity="0.4" d="M317.706 247.248L299.729 236.898V239.083L317.706 249.432V247.248Z" fill="white"/>
<path opacity="0.4" d="M319.585 248.351V250.514L356.415 271.765V269.581L319.585 248.351Z" fill="white"/>
<path opacity="0.4" d="M351.574 254.801V256.985L356.415 259.782V257.597L351.574 254.801Z" fill="white"/>
<path opacity="0.4" d="M325.202 235.612L299.729 220.935V223.119L325.202 237.796V235.612Z" fill="white"/>
<path opacity="0.4" d="M314.764 197.664L299.729 188.988V191.173L314.764 199.848V197.664Z" fill="white"/>
<path opacity="0.4" d="M339.42 211.871L316.644 198.745V200.929L339.42 214.055V211.871Z" fill="white"/>
<path opacity="0.4" d="M326.142 208.217L310.127 198.97V201.154L326.142 210.401V208.217Z" fill="white"/>
<path opacity="0.4" d="M342.954 217.913L328.021 209.299V211.483L342.954 220.077V217.913Z" fill="white"/>
<path opacity="0.4" d="M344.833 218.995V221.179L356.415 227.855V225.67L344.833 218.995Z" fill="white"/>
<path opacity="0.4" d="M302.691 198.685V200.869L314.764 207.83V205.646L302.691 198.685Z" fill="white"/>
<path opacity="0.4" d="M351.697 226.937L316.644 206.728V208.912L351.697 229.121V226.937Z" fill="white"/>
<path opacity="0.4" d="M331.637 227.345L308.718 214.138V216.322L331.637 229.529V227.345Z" fill="white"/>
<path opacity="0.4" d="M351.697 238.899L333.517 228.427V230.611L351.697 241.103V238.899Z" fill="white"/>
<path opacity="0.4" d="M349.695 249.718L327.082 236.694V238.879L349.695 251.902V249.718Z" fill="white"/>
<path opacity="0.4" d="M337.377 246.615V248.799L349.695 255.903V253.719L337.377 246.615Z" fill="white"/>
<path opacity="0.4" d="M304.162 227.468L299.729 224.916V227.1L304.162 229.652V227.468Z" fill="white"/>
<path opacity="0.4" d="M312.455 232.265V234.449L335.497 247.718V245.533L312.455 232.265Z" fill="white"/>
<path opacity="0.4" d="M310.576 231.182L306.041 228.569V230.754L310.576 233.366V231.182Z" fill="white"/>
<path opacity="0.4" d="M331.228 247.064L306.041 232.55V234.734L331.228 249.248V247.064Z" fill="white"/>
</g>
<g opacity="0.4">
<path opacity="0.4" d="M371.532 44.9092V47.0934L380.725 52.3805V50.1963L371.532 44.9092Z" fill="white"/>
<path opacity="0.4" d="M371.532 48.8896V51.0739L380.725 56.3814V54.1971L371.532 48.8896Z" fill="white"/>
<path opacity="0.4" d="M371.532 52.8906V55.0749L380.725 60.3619V58.1777L371.532 52.8906Z" fill="white"/>
<path opacity="0.4" d="M440.863 99.0253V96.8411L384.177 64.1592V66.3434L440.863 99.0253Z" fill="white"/>
<path opacity="0.4" d="M371.532 56.8916V59.0758L380.725 64.3629V62.1787L371.532 56.8916Z" fill="white"/>
<path opacity="0.4" d="M371.532 60.8721V63.0563L380.725 68.3638V66.1591L371.532 60.8721Z" fill="white"/>
<path opacity="0.4" d="M440.863 103.026V100.842L384.177 68.1602V70.3444L440.863 103.026Z" fill="white"/>
<path opacity="0.4" d="M371.532 72.8555V75.0397L380.725 80.3268V78.1425L371.532 72.8555Z" fill="white"/>
<path opacity="0.4" d="M371.532 76.8359V79.0202L380.725 84.3277V82.1434L371.532 76.8359Z" fill="white"/>
<path opacity="0.4" d="M371.532 92.8193V95.0036L380.725 100.291V98.1064L371.532 92.8193Z" fill="white"/>
<path opacity="0.4" d="M371.532 96.7998V98.984L380.725 104.292V102.087L371.532 96.7998Z" fill="white"/>
<path opacity="0.4" d="M419.925 124.705L384.177 104.088V106.272L419.925 126.89V124.705Z" fill="white"/>
<path opacity="0.4" d="M421.824 125.787V127.971L440.862 138.954V136.77L421.824 125.787Z" fill="white"/>
<path opacity="0.4" d="M402.132 110.457L384.177 100.087V102.271L402.132 112.641V110.457Z" fill="white"/>
<path opacity="0.4" d="M404.012 111.539V113.723L440.863 134.953V132.769L404.012 111.539Z" fill="white"/>
<path opacity="0.4" d="M436.021 117.989V120.194L440.863 122.97V120.786L436.021 117.989Z" fill="white"/>
<path opacity="0.4" d="M409.65 98.8003L384.177 84.123V86.3073L409.65 100.985V98.8003Z" fill="white"/>
<path opacity="0.4" d="M399.211 60.8526L384.177 52.1973V54.3815L399.211 63.0368V60.8526Z" fill="white"/>
<path opacity="0.4" d="M423.847 75.0594L401.091 61.9336V64.1178L423.847 77.2437V75.0594Z" fill="white"/>
<path opacity="0.4" d="M410.589 71.4056L394.554 62.1787V64.363L410.589 73.5898V71.4056Z" fill="white"/>
<path opacity="0.4" d="M427.401 81.1018L412.469 72.4873V74.6715L427.401 83.286V81.1018Z" fill="white"/>
<path opacity="0.4" d="M429.28 82.1846V84.3688L440.863 91.044V88.8598L429.28 82.1846Z" fill="white"/>
<path opacity="0.4" d="M387.118 61.873V64.0573L399.211 71.0183V68.834L387.118 61.873Z" fill="white"/>
<path opacity="0.4" d="M436.144 90.1254L401.091 69.9365V72.1208L436.144 92.3096V90.1254Z" fill="white"/>
<path opacity="0.4" d="M416.064 90.5337L393.165 77.3262V79.5104L416.064 92.7179V90.5337Z" fill="white"/>
<path opacity="0.4" d="M436.144 102.108L417.964 91.6152V93.7995L436.144 104.292V102.108Z" fill="white"/>
<path opacity="0.4" d="M434.122 112.927L411.529 99.9033V102.088L434.122 115.111V112.927Z" fill="white"/>
<path opacity="0.4" d="M421.824 109.824V112.008L434.121 119.092V116.908L421.824 109.824Z" fill="white"/>
<path opacity="0.4" d="M388.609 90.6757L384.177 88.124V90.3083L388.609 92.8599V90.6757Z" fill="white"/>
<path opacity="0.4" d="M396.903 95.4531V97.6374L419.925 110.926V108.722L396.903 95.4531Z" fill="white"/>
<path opacity="0.4" d="M395.023 94.3707L390.488 91.7578V93.942L395.023 96.555V94.3707Z" fill="white"/>
<path opacity="0.4" d="M415.675 110.273L390.488 95.7588V97.943L415.675 112.457V110.273Z" fill="white"/>
</g>
<path d="M205.478 325.41C203.603 324.765 201.6 324.583 199.639 324.882C197.679 325.181 195.82 325.95 194.223 327.125C188.095 331.207 184.009 336.78 186.501 338.862C188.993 340.945 193.794 343.17 196.919 342.047C200.045 340.924 215.488 331.861 205.478 325.41Z" fill="#0F4463"/>
<path d="M333.986 301.588L285.86 328.84L255.178 311.101L303.304 283.869L333.986 301.588Z" fill="#ED5561"/>
<path d="M295.276 328.187V329.248L343.403 301.71V300.935L295.276 328.187Z" fill="#F0CEC9"/>
<path d="M343.403 300.935L295.277 328.187L264.615 310.447L312.722 283.216L343.403 300.935Z" fill="#FFFBF0"/>
<path d="M295.277 328.187V329.248L264.615 311.509V310.447L295.277 328.187Z" fill="#F5DDD8"/>
<path d="M312.395 286.114L330.923 296.79L330.126 297.26L311.578 286.584L312.395 286.114Z" fill="#DFBAB8"/>
<path d="M310.474 287.217L329.002 297.893L328.185 298.342L309.657 287.666L310.474 287.217Z" fill="#DFBAB8"/>
<path d="M306.001 289.748L331.514 304.466L330.697 304.915L305.184 290.197L306.001 289.748Z" fill="#DFBAB8"/>
<path d="M304.224 290.748L329.738 305.466L328.941 305.915L303.407 291.197L304.224 290.748Z" fill="#DFBAB8"/>
<path d="M302.468 291.748L327.981 306.466L327.164 306.915L301.65 292.197L302.468 291.748Z" fill="#DFBAB8"/>
<path d="M300.69 292.749L326.204 307.467L325.407 307.916L299.894 293.198L300.69 292.749Z" fill="#DFBAB8"/>
<path d="M298.933 293.749L324.447 308.467L323.63 308.937L298.116 294.219L298.933 293.749Z" fill="#DFBAB8"/>
<path d="M297.156 294.749L322.69 309.467L321.873 309.937L296.359 295.219L297.156 294.749Z" fill="#DFBAB8"/>
<path d="M295.399 295.75L320.913 310.468L320.096 310.938L294.582 296.22L295.399 295.75Z" fill="#DFBAB8"/>
<path d="M293.622 296.75L319.156 311.468L318.339 311.938L292.825 297.22L293.622 296.75Z" fill="#DFBAB8"/>
<path d="M291.865 297.75L317.379 312.468L316.562 312.938L291.048 298.22L291.865 297.75Z" fill="#DFBAB8"/>
<path d="M290.089 298.75L315.623 313.468L314.806 313.938L289.292 299.22L290.089 298.75Z" fill="#DFBAB8"/>
<path d="M288.332 299.751L313.845 314.489L313.028 314.939L287.515 300.221L288.332 299.751Z" fill="#DFBAB8"/>
<path d="M286.575 300.771L312.089 315.469L311.272 315.939L285.758 301.221L286.575 300.771Z" fill="#DFBAB8"/>
<path d="M284.798 301.771L310.311 316.49L309.494 316.939L283.98 302.221L284.798 301.771Z" fill="#DFBAB8"/>
<path d="M283.041 302.771L308.554 317.49L307.737 317.939L282.224 303.221L283.041 302.771Z" fill="#DFBAB8"/>
<path d="M281.263 303.772L306.777 318.491L305.98 318.94L280.446 304.222L281.263 303.772Z" fill="#DFBAB8"/>
<path d="M260.469 317.449H255.975V322.308H260.469C261.276 322.308 262.051 322.628 262.621 323.198C263.192 323.769 263.513 324.543 263.513 325.349V333.229C263.507 334.032 263.184 334.8 262.614 335.366C262.044 335.932 261.273 336.25 260.469 336.25H253.871V341.108H260.469C262.562 341.108 264.57 340.279 266.052 338.802C267.534 337.325 268.369 335.32 268.374 333.229V325.41C268.38 324.369 268.18 323.336 267.785 322.372C267.39 321.407 266.809 320.53 266.075 319.791C265.34 319.051 264.467 318.464 263.505 318.062C262.543 317.66 261.512 317.452 260.469 317.449Z" fill="#A7BCCE"/>
<path d="M258.774 314.775V342.089C258.774 346.335 252.462 349.764 244.679 349.764C236.896 349.764 230.563 346.335 230.563 342.089V314.775H258.774Z" fill="#BBCEE1"/>
<path d="M230.563 314.775C230.563 319 236.876 322.45 244.679 322.45C252.482 322.45 258.774 319 258.774 314.775C258.774 310.549 252.462 307.038 244.679 307.038C236.896 307.038 230.563 310.549 230.563 314.775Z" fill="white"/>
<path d="M233.382 314.672C233.382 318 238.427 320.674 244.678 320.674C250.929 320.674 255.974 318 255.974 314.672C255.974 311.345 250.908 308.691 244.678 308.691C238.448 308.691 233.382 311.366 233.382 314.672Z" fill="#A7BCCE"/>
<path d="M244.679 312.611C239.735 312.611 235.548 314.306 233.995 316.694C235.548 319.042 239.735 320.777 244.679 320.777C249.622 320.777 253.81 319.082 255.342 316.694C253.81 314.306 249.622 312.611 244.679 312.611Z" fill="#9D4D36"/>
<path d="M250.01 321.878V349.192C252.44 348.73 254.72 347.678 256.649 346.13V318.816C254.72 320.365 252.44 321.417 250.01 321.878Z" fill="#A7BCCE"/>
<path d="M66.7943 144.52C68.2608 129.639 57.3778 116.388 42.4865 114.922C27.5952 113.457 14.3346 124.332 12.8682 139.213C11.4017 154.095 22.2847 167.346 37.176 168.812C52.0673 170.277 65.3278 159.402 66.7943 144.52Z" fill="#FFBB00"/>
<path d="M39.8006 162.886C51.4034 162.886 60.8093 153.487 60.8093 141.892C60.8093 130.297 51.4034 120.897 39.8006 120.897C28.1979 120.897 18.792 130.297 18.792 141.892C18.792 153.487 28.1979 162.886 39.8006 162.886Z" fill="#FFDC12"/>
<path d="M38.8828 114.702V120.897C39.2272 120.897 39.4568 120.897 39.8012 120.897C40.1456 120.897 40.3752 120.897 40.7196 120.897V114.702C40.3752 114.702 40.1456 114.702 39.8012 114.702C39.4568 114.702 39.2272 114.702 38.8828 114.702Z" fill="#FFDC12"/>
<path d="M15.8076 129.043L21.0885 132.14C21.4329 131.567 21.6625 131.108 22.0069 130.534L16.6112 127.437C16.4964 128.01 16.152 128.584 15.8076 129.043Z" fill="#FFDC12"/>
<path d="M28.5508 124.11C29.1248 123.765 29.584 123.536 30.158 123.192L27.0584 117.8C26.4844 118.029 26.0252 118.373 25.4512 118.718L28.5508 124.11Z" fill="#FFDC12"/>
<path d="M60.8096 140.974C60.8096 141.318 60.8096 141.547 60.8096 141.891C60.8096 142.236 60.8096 142.465 60.8096 142.809H67.0089C67.0089 142.465 67.0089 142.236 67.0089 141.891C67.0089 141.547 67.0089 141.318 67.0089 140.974H60.8096Z" fill="#FFDC12"/>
<path d="M62.8766 127.551L57.5957 130.648C57.9401 131.222 58.1697 131.681 58.5141 132.254L63.9098 129.157C63.4506 128.583 63.221 128.01 62.8766 127.551Z" fill="#FFDC12"/>
<path d="M49.5596 123.306C50.1336 123.65 50.5928 123.88 51.1668 124.224L54.2664 118.832C53.8072 118.488 53.2332 118.258 52.6592 117.914L49.5596 123.306Z" fill="#FFDC12"/>
<path d="M51.0515 159.559C50.4775 159.903 50.0183 160.132 49.4443 160.476L52.544 165.868C53.118 165.639 53.5772 165.295 54.1512 164.951L51.0515 159.559Z" fill="#FFDC12"/>
<path d="M40.7196 168.967V162.771C40.3752 162.771 40.1456 162.771 39.8012 162.771C39.4568 162.771 39.2272 162.771 38.8828 162.771V168.967C39.2272 168.967 39.4568 168.967 39.8012 168.967C40.1456 168.967 40.3752 168.967 40.7196 168.967Z" fill="#FFDC12"/>
<path d="M63.795 154.626L58.5141 151.528C58.1697 152.102 57.9401 152.561 57.5957 153.134L62.9914 156.232C63.221 155.658 63.4506 155.199 63.795 154.626Z" fill="#FFDC12"/>
<path d="M12.708 142.809H18.9073C18.9073 142.465 18.9073 142.236 18.9073 141.891C18.9073 141.547 18.9073 141.318 18.9073 140.974H12.708C12.708 141.318 12.708 141.547 12.708 141.891C12.708 142.121 12.708 142.465 12.708 142.809Z" fill="#FFDC12"/>
<path d="M22.1217 153.134C21.7773 152.561 21.5477 152.102 21.2033 151.528L15.8076 154.626C16.0372 155.199 16.3816 155.658 16.726 156.232L22.1217 153.134Z" fill="#FFDC12"/>
<path d="M30.0428 160.476C29.4688 160.132 29.0096 159.903 28.4356 159.559L25.3359 164.951C25.7951 165.295 26.3691 165.524 26.9431 165.868L30.0428 160.476Z" fill="#FFDC12"/>
<path d="M49.1003 144.301C48.9855 143.842 48.6411 143.383 48.4115 143.039C48.0671 142.695 47.7227 142.351 47.2635 142.007C46.8043 141.777 46.3451 141.548 45.8859 141.318V141.203C46.8043 140.745 47.4931 140.056 47.9523 139.368C48.4115 138.565 48.5263 137.762 48.5263 136.844C48.5263 136.385 48.4115 135.812 48.2967 135.353C48.1819 134.894 47.8375 134.32 47.4931 133.976C47.1487 133.517 46.6895 133.058 46.2303 132.714C45.6563 132.37 45.0823 132.026 44.3935 131.796C43.8195 131.567 43.1306 131.452 42.4418 131.452V128.354H40.2606V131.452H37.9646V128.354H35.7834V131.452H33.4873H30.3877V134.894H33.4873V148.775H30.3877V152.217H33.4873H35.7834V155.314H37.9646V152.217H39.5718C39.8014 152.217 40.1458 152.217 40.3754 152.217V155.314H42.5566V152.102C42.9011 152.102 43.1306 151.987 43.3603 151.987C43.7047 151.987 43.9343 151.873 44.1639 151.873C45.1971 151.643 46.0007 151.184 46.6895 150.84C47.3783 150.381 47.9523 149.922 48.2967 149.349C48.7559 148.775 48.9855 148.202 49.1003 147.628C49.2151 147.054 49.3299 146.481 49.3299 146.022C49.3299 145.334 49.2151 144.875 49.1003 144.301ZM40.2606 134.664C40.8346 134.664 41.2938 134.664 41.6382 134.664C41.9826 134.664 42.3271 134.779 42.6715 134.894C43.3603 135.123 43.8195 135.467 44.0491 135.812C44.2787 136.27 44.5083 136.729 44.5083 137.303C44.5083 137.877 44.3935 138.335 44.1639 138.68C43.9343 139.138 43.4751 139.483 42.9011 139.712C42.4418 139.942 41.6382 140.056 40.605 140.056H37.161V134.664H40.2606ZM45.1971 146.94C45.0823 147.284 44.9675 147.513 44.7379 147.743C44.5083 147.972 44.2787 148.202 43.9343 148.431C43.5899 148.661 43.1307 148.775 42.5566 148.89C42.2122 149.005 41.753 149.005 41.2938 149.119C40.8346 149.119 40.2606 149.119 39.5718 149.119H37.0462V143.269H40.605C41.2938 143.269 41.753 143.269 42.2122 143.383C42.6714 143.383 43.0159 143.498 43.2455 143.613C43.9343 143.842 44.3935 144.186 44.7379 144.645C45.0823 145.104 45.1971 145.563 45.1971 146.137C45.4267 146.366 45.3119 146.595 45.1971 146.94Z" fill="#FF8C00"/>
</g>
<defs>
<linearGradient id="paint0_linear_551_23828" x1="178.331" y1="270.355" x2="213.565" y2="154.393" gradientUnits="userSpaceOnUse">
<stop stop-color="#1C75BC"/>
<stop offset="0.28" stop-color="#2077BC"/>
<stop offset="0.54" stop-color="#2B7EBC"/>
<stop offset="0.8" stop-color="#3E88BC"/>
<stop offset="1" stop-color="#5394BC"/>
</linearGradient>
<clipPath id="clip0_551_23828">
<rect width="479" height="476" fill="white"/>
</clipPath>
</defs>
</svg>
