<svg width="90" height="73" viewBox="0 0 80 63" fill="none" xmlns="http://www.w3.org/2000/svg"><path fill-rule="evenodd" clip-rule="evenodd" d="M5.41667 0H74.5833C77.5651 0 80 2.4349 80 5.41667V56.7643C80 59.7396 77.5651 62.181 74.5833 62.181H5.41667C2.4349 62.181 0 59.7461 0 56.7643V5.41667C0 2.4349 2.4349 0 5.41667 0ZM8.20313 17.5456H71.2044V44.2904H8.20313V17.5456ZM20.9701 25.1758H24.8633V33.2747C24.8633 34.0755 24.7461 34.8372 24.5117 35.5469C24.2773 36.263 23.9128 36.888 23.418 37.4219C22.9232 37.9557 22.4023 38.3333 21.8555 38.5482C21.1003 38.8477 20.1888 39.0039 19.1276 39.0039C18.5156 39.0039 17.8451 38.9583 17.1159 38.8672C16.3932 38.7761 15.7813 38.5938 15.293 38.3138C14.8047 38.0404 14.362 37.6497 13.9583 37.1419C13.5547 36.6341 13.2747 36.1133 13.125 35.5729C12.8841 34.707 12.7604 33.9453 12.7604 33.2747V25.1758H16.6536V33.4701C16.6536 34.2122 16.8424 34.7917 17.2266 35.2018C17.6107 35.6185 18.138 35.8268 18.8151 35.8268C19.4792 35.8268 20.0065 35.6185 20.3906 35.2083C20.7682 34.7982 20.9635 34.2188 20.9635 33.4635V25.1758H20.9701ZM27.5977 25.1758H31.5104V38.7761H27.5977V25.1758ZM36.1914 24.9479H37.9622L34.7786 39.0039H33.0078L36.1914 24.9479ZM47.4089 25.1758H51.3021V33.2747C51.3021 34.0755 51.1849 34.8372 50.9505 35.5469C50.7161 36.263 50.3516 36.888 49.8568 37.4219C49.362 37.9557 48.8411 38.3333 48.2943 38.5482C47.5391 38.8477 46.6276 39.0039 45.5664 39.0039C44.9544 39.0039 44.2839 38.9583 43.5547 38.8672C42.832 38.7761 42.2201 38.5938 41.7318 38.3138C41.2435 38.0404 40.8008 37.6497 40.3971 37.1419C39.9935 36.6341 39.7135 36.1133 39.5638 35.5729C39.3229 34.707 39.2057 33.9453 39.2057 33.2747V25.1758H43.099V33.4701C43.099 34.2122 43.2878 34.7917 43.6719 35.2018C44.056 35.6185 44.5833 35.8268 45.2604 35.8268C45.9245 35.8268 46.4518 35.6185 46.8359 35.2083C47.2135 34.7982 47.4089 34.2188 47.4089 33.4635V25.1758V25.1758ZM53.0143 25.1758H57.3177L59.5508 29.362L61.7188 25.1758H65.9635L62.0443 31.7643L66.3346 38.7761H61.9466L59.4727 34.4076L56.9792 38.7761H52.6237L56.9727 31.6862L53.0143 25.1758ZM43.5352 54.4792C42.3763 54.4792 41.4388 53.457 41.4388 52.2005C41.4388 50.9375 42.3763 49.9219 43.5352 49.9219H69.349C70.5078 49.9219 71.4453 50.944 71.4453 52.2005C71.4453 53.4636 70.5078 54.4792 69.349 54.4792H43.5352ZM9.73958 54.4792C8.59375 54.4792 7.66276 53.457 7.66276 52.2005C7.66276 50.9375 8.59375 49.9219 9.73958 49.9219H33.6719C34.8177 49.9219 35.7487 50.944 35.7487 52.2005C35.7487 53.4636 34.8177 54.4792 33.6719 54.4792H9.73958ZM76.8034 13.0859H3.44401V57.2917C3.44401 57.7083 3.60677 58.0729 3.88021 58.3529C4.16016 58.6263 4.52474 58.7891 4.94141 58.7891H75.2799C75.6966 58.7891 76.0612 58.6263 76.3411 58.3529C76.6211 58.0729 76.7773 57.7083 76.7773 57.2917V13.0859H76.8034ZM69.4271 4.01042C70.9049 4.01042 72.1029 5.20833 72.1029 6.6862C72.1029 8.16406 70.9049 9.36198 69.4271 9.36198C67.9492 9.36198 66.7513 8.16406 66.7513 6.6862C66.7578 5.20833 67.9557 4.01042 69.4271 4.01042ZM51.3021 4.01042C52.78 4.01042 53.9779 5.20833 53.9779 6.6862C53.9779 8.16406 52.78 9.36198 51.3021 9.36198C49.8242 9.36198 48.6263 8.16406 48.6263 6.6862C48.6263 5.20833 49.8242 4.01042 51.3021 4.01042ZM60.3646 4.01042C61.8425 4.01042 63.0404 5.20833 63.0404 6.6862C63.0404 8.16406 61.8425 9.36198 60.3646 9.36198C58.8867 9.36198 57.6888 8.16406 57.6888 6.6862C57.6888 5.20833 58.8867 4.01042 60.3646 4.01042Z" fill="black"></path></svg>