<svg width="76" height="76" viewBox="0 0 76 76" fill="none" xmlns="http://www.w3.org/2000/svg"><path d="M62.7058 0.352539H13.2944C6.16496 0.352539 0.352967 6.16454 0.352967 13.294V20.3525H75.6472V13.294C75.6478 6.16454 69.8352 0.352539 62.7058 0.352539ZM16.9644 13.4351C16.3053 14.0942 15.4114 14.4703 14.47 14.4703C13.5525 14.4703 12.6345 14.0942 11.9761 13.4351C11.3171 12.8001 10.9409 11.8821 10.9409 10.9413C10.9409 10.0238 11.3176 9.10583 11.9761 8.4474C13.2936 7.15331 15.6468 7.15331 16.9644 8.4474C17.6229 9.10588 17.9995 10.0233 17.9995 10.9413C17.9995 11.8821 17.6229 12.7761 16.9644 13.4351ZM27.5525 13.4351C26.8935 14.0942 25.9995 14.4703 25.0581 14.4703C24.1167 14.4703 23.2227 14.0936 22.5642 13.4351C21.9052 12.7761 21.5291 11.8821 21.5291 10.9413C21.5291 10.0238 21.9058 9.10583 22.5642 8.4474C23.8818 7.12987 26.235 7.15331 27.5525 8.4474C28.211 9.10588 28.5877 10.0233 28.5877 10.9413C28.5877 11.8821 28.211 12.8001 27.5525 13.4351ZM61.5296 14.4703H45.0597C43.1065 14.4703 41.5301 12.8938 41.5301 10.9407C41.5301 9.01155 43.1065 7.4117 45.0591 7.4117H61.5291C63.4822 7.4117 65.0586 9.01155 65.0586 10.9413C65.0586 12.8938 63.4822 14.4703 61.5296 14.4703ZM0.352539 27.4117V62.706C0.352539 69.8588 6.16454 75.6474 13.294 75.6474H62.7054C69.8348 75.6474 75.6468 69.8588 75.6468 62.706V27.4117H0.352539ZM26.3768 57.8588C27.7652 59.2472 27.7652 61.4821 26.3768 62.8471C25.6943 63.553 24.7764 63.8823 23.8824 63.8823C22.9884 63.8823 22.0704 63.553 21.3885 62.8471L11.9767 53.4353C10.5883 52.0703 10.5883 49.8354 11.9767 48.447L21.3885 39.0351C22.7769 37.6702 24.9884 37.6702 26.3768 39.0351C27.7652 40.4235 27.7652 42.6584 26.3768 44.0234L19.4588 50.9414L26.3768 57.8588ZM46.0468 39.176L36.6349 66.2346C36.1171 67.6933 34.7527 68.5873 33.294 68.5873C32.9173 68.5873 32.5177 68.5404 32.1411 68.3992C30.2822 67.7642 29.3173 65.7402 29.9531 63.9054L39.3649 36.8468C40.0239 35.0114 42.0239 34.0465 43.8588 34.6822C45.7176 35.3173 46.6825 37.3171 46.0468 39.176ZM64.0239 53.4348L54.6121 62.8467C53.9302 63.5526 53.0122 63.8819 52.1182 63.8819C51.2243 63.8819 50.3062 63.5526 49.6244 62.8467C48.236 61.4817 48.236 59.2468 49.6244 57.8584L56.5418 50.941L49.6244 44.0236C48.236 42.6586 48.236 40.4237 49.6244 39.0353C51.0128 37.6703 53.2242 37.6703 54.6127 39.0353L64.0245 48.4471C65.4123 49.835 65.4123 52.0698 64.0239 53.4348Z" fill="black"></path></svg>