<svg width="749" height="721" viewBox="0 0 749 721" fill="none" xmlns="http://www.w3.org/2000/svg">
<path fill-rule="evenodd" clip-rule="evenodd" d="M374.501 330.428C302.952 397.314 243.44 476.017 198.571 563.093C221.808 594.448 248.13 623.393 277.141 649.494C293.635 639.489 312.243 627.051 333.114 611.933C319.437 628.936 304.041 644.482 287.172 658.322C314.414 681.704 343.633 702.675 374.501 721C405.371 702.675 434.593 681.704 461.837 658.322C444.965 644.485 429.568 628.939 415.893 611.933C436.764 627.051 455.374 639.489 471.868 649.494C500.877 623.393 527.196 594.447 550.431 563.093C505.564 476.016 446.052 397.313 374.501 330.428Z" fill="url(#paint0_radial_2_167)"/>
<path fill-rule="evenodd" clip-rule="evenodd" d="M208.344 544.525C233.163 579.152 261.814 610.862 293.75 639.053C305.862 631.193 318.983 622.153 333.112 611.933C323.432 623.985 312.874 635.303 301.522 645.794C324.474 665.33 348.869 683.104 374.499 698.963V330.428C308.134 392.546 252.051 464.811 208.344 544.525Z" fill="url(#paint1_linear_2_167)"/>
<path opacity="0.3" fill-rule="evenodd" clip-rule="evenodd" d="M374.501 355.52C304.904 421.44 245.787 497.529 209.162 576.943C227.889 600.694 248.432 622.953 270.607 643.519C268.713 547.405 308.731 450.374 374.501 374.382C440.273 450.374 480.291 547.405 478.4 643.519C500.575 622.954 521.119 600.695 539.844 576.943C503.219 497.529 444.104 421.44 374.501 355.52Z" fill="black"/>
<path fill-rule="evenodd" clip-rule="evenodd" d="M198.573 563.093C148.461 661.453 152.334 725.201 277.143 649.494C274.947 647.517 272.769 645.527 270.609 643.524C173.512 701.065 176.836 647.042 209.164 576.948C245.789 497.533 304.906 421.444 374.503 355.524V330.428C302.954 397.314 243.442 476.017 198.573 563.093Z" fill="url(#paint2_radial_2_167)"/>
<path fill-rule="evenodd" clip-rule="evenodd" d="M374.501 330.428V355.524C444.105 421.444 503.22 497.533 539.844 576.948C572.17 647.042 575.494 701.065 478.4 643.524C476.236 645.528 474.058 647.518 471.868 649.494C596.678 725.201 600.548 661.453 550.441 563.093C505.567 476.018 446.052 397.315 374.501 330.428Z" fill="url(#paint3_radial_2_167)"/>
<path fill-rule="evenodd" clip-rule="evenodd" d="M430.467 281.804C496.573 343.776 551.469 416.715 592.73 497.399C621.11 445.792 642.562 390.666 656.533 333.447C637.718 349.323 616.473 366.419 592.798 384.735C619.937 356.143 643.07 330.366 662.558 307.227C669.749 272.975 674.776 238.303 677.609 203.419C654.067 192.635 631.203 181.284 609.019 169.365C545.449 199.981 485.55 237.701 430.467 281.804Z" fill="url(#paint4_radial_2_167)"/>
<path fill-rule="evenodd" clip-rule="evenodd" d="M430.467 281.808C491.093 338.563 542.276 404.634 582.084 477.528C602.758 438.216 619.315 396.87 631.489 354.152C619.421 363.933 606.523 374.129 592.798 384.739C608.502 368.197 622.888 352.586 635.954 337.905C646.445 297.553 653.708 256.43 657.674 214.925C634.17 203.854 611.092 192.074 588.44 179.586C532.482 208.262 479.557 242.51 430.467 281.808Z" fill="url(#paint5_linear_2_167)"/>
<path opacity="0.3" fill-rule="evenodd" clip-rule="evenodd" d="M444.533 295.287C447.546 298.254 450.542 301.247 453.521 304.266C565.424 216.148 647.165 235.157 665.794 291.108C671.267 262.106 675.211 232.836 677.609 203.419C662.138 196.334 646.963 189.002 632.084 181.424C565.102 211.477 502.105 249.723 444.533 295.287Z" fill="black"/>
<path fill-rule="evenodd" clip-rule="evenodd" d="M609.019 169.366C545.449 199.982 485.55 237.702 430.467 281.805C435.204 286.242 439.893 290.736 444.533 295.287C502.151 249.839 565.109 211.612 632.006 181.458C774.538 119.582 722.442 218.671 665.794 291.108C664.77 296.505 663.691 301.879 662.558 307.228C818.386 122.21 740.779 105.978 609.019 169.366Z" fill="url(#paint6_radial_2_167)"/>
<path fill-rule="evenodd" clip-rule="evenodd" d="M71.3975 203.419C74.2295 238.303 79.2558 272.975 86.4465 307.227C105.931 330.366 129.069 356.143 156.209 384.735C132.483 366.401 111.239 349.306 92.4758 333.447C106.447 390.665 127.899 445.791 156.277 497.399C197.541 416.716 252.437 343.777 318.542 281.804C263.457 237.701 203.557 199.981 139.985 169.365C117.798 181.282 94.935 192.633 71.3975 203.419Z" fill="url(#paint7_radial_2_167)"/>
<path fill-rule="evenodd" clip-rule="evenodd" d="M91.333 214.925C95.2991 256.43 102.561 297.553 113.05 337.905C126.14 352.597 140.524 368.208 156.204 384.739C142.468 374.126 129.573 363.931 117.517 354.152C129.689 396.871 146.245 438.216 166.92 477.528C206.727 404.633 257.91 338.562 318.537 281.808C269.446 242.509 216.519 208.262 160.559 179.586C137.921 192.081 114.846 203.861 91.333 214.925Z" fill="url(#paint8_linear_2_167)"/>
<path opacity="0.3" fill-rule="evenodd" clip-rule="evenodd" d="M71.3975 203.419C73.7979 232.836 77.7417 262.106 83.2126 291.108C101.844 235.157 183.587 216.148 295.487 304.266C298.46 301.247 301.457 298.254 304.478 295.287C246.905 249.724 183.907 211.478 116.925 181.424C102.041 189.001 86.8655 196.333 71.3975 203.419Z" fill="black"/>
<path fill-rule="evenodd" clip-rule="evenodd" d="M86.4407 307.228C85.3077 301.879 84.2297 296.506 83.2069 291.108C26.5582 218.671 -25.5394 119.582 116.992 181.458C183.891 211.613 246.851 249.839 304.472 295.287C309.105 290.735 313.793 286.241 318.536 281.805C263.452 237.702 203.551 199.982 139.979 169.366C8.22162 105.978 -69.3856 122.21 86.4407 307.228Z" fill="url(#paint9_radial_2_167)"/>
<path fill-rule="evenodd" clip-rule="evenodd" d="M209.318 128.937C267.41 158.941 322.692 194.102 374.498 233.996C426.307 194.102 481.591 158.941 539.685 128.937C480.437 91.6124 425.095 48.4157 374.498 0C323.903 48.4144 268.564 91.6111 209.318 128.937Z" fill="url(#paint10_radial_2_167)"/>
<path fill-rule="evenodd" clip-rule="evenodd" d="M374.503 233.994V25.877C329.153 67.7993 280.237 105.687 228.309 139.111C279.554 166.683 328.45 198.417 374.503 233.994Z" fill="url(#paint11_linear_2_167)"/>
<defs>
<radialGradient id="paint0_radial_2_167" cx="0" cy="0" r="1" gradientUnits="userSpaceOnUse" gradientTransform="translate(368.116 247.52) scale(578.978 579.182)">
<stop stop-color="white"/>
<stop offset="0.5" stop-color="#D54191"/>
<stop offset="1" stop-color="#62338F"/>
</radialGradient>
<linearGradient id="paint1_linear_2_167" x1="291.421" y1="884.122" x2="291.421" y2="517.063" gradientUnits="userSpaceOnUse">
<stop stop-color="white"/>
<stop offset="1" stop-color="white" stop-opacity="0"/>
</linearGradient>
<radialGradient id="paint2_radial_2_167" cx="0" cy="0" r="1" gradientUnits="userSpaceOnUse" gradientTransform="translate(195.092 427.265) scale(299.474 299.579)">
<stop stop-color="white"/>
<stop offset="0.5" stop-color="#D54191"/>
<stop offset="1" stop-color="#62338F"/>
</radialGradient>
<radialGradient id="paint3_radial_2_167" cx="0" cy="0" r="1" gradientUnits="userSpaceOnUse" gradientTransform="translate(552.373 456.696) scale(210.069 210.142)">
<stop stop-color="white"/>
<stop offset="0.5" stop-color="#D54191"/>
<stop offset="1" stop-color="#62338F"/>
</radialGradient>
<radialGradient id="paint4_radial_2_167" cx="0" cy="0" r="1" gradientUnits="userSpaceOnUse" gradientTransform="translate(378.098 292.453) scale(434.234 434.388)">
<stop stop-color="white"/>
<stop offset="0.5" stop-color="#31B1E7"/>
<stop offset="1" stop-color="#323390"/>
</radialGradient>
<linearGradient id="paint5_linear_2_167" x1="872.227" y1="328.557" x2="539.712" y2="328.557" gradientUnits="userSpaceOnUse">
<stop stop-color="white"/>
<stop offset="1" stop-color="white" stop-opacity="0"/>
</linearGradient>
<radialGradient id="paint6_radial_2_167" cx="0" cy="0" r="1" gradientUnits="userSpaceOnUse" gradientTransform="translate(544.813 118.337) scale(242.671 242.757)">
<stop stop-color="white"/>
<stop offset="0.5" stop-color="#31B1E7"/>
<stop offset="1" stop-color="#323390"/>
</radialGradient>
<radialGradient id="paint7_radial_2_167" cx="0" cy="0" r="1" gradientUnits="userSpaceOnUse" gradientTransform="translate(375.604 255.006) scale(408.738 408.882)">
<stop stop-color="white"/>
<stop offset="0.5" stop-color="#F8B626"/>
<stop offset="1" stop-color="#C81B23"/>
</radialGradient>
<linearGradient id="paint8_linear_2_167" x1="-68.6168" y1="328.557" x2="188.442" y2="328.557" gradientUnits="userSpaceOnUse">
<stop stop-color="white"/>
<stop offset="1" stop-color="white" stop-opacity="0"/>
</linearGradient>
<radialGradient id="paint9_radial_2_167" cx="0" cy="0" r="1" gradientUnits="userSpaceOnUse" gradientTransform="translate(218.376 149.323) scale(209.631 209.705)">
<stop stop-color="white"/>
<stop offset="0.5" stop-color="#F8B626"/>
<stop offset="1" stop-color="#C81B23"/>
</radialGradient>
<radialGradient id="paint10_radial_2_167" cx="0" cy="0" r="1" gradientUnits="userSpaceOnUse" gradientTransform="translate(373.103 307.432) scale(406.785 406.928)">
<stop stop-color="white"/>
<stop offset="0.28" stop-color="#E5E500"/>
<stop offset="0.8" stop-color="#17953B"/>
</radialGradient>
<linearGradient id="paint11_linear_2_167" x1="301.406" y1="-136.942" x2="301.406" y2="150.251" gradientUnits="userSpaceOnUse">
<stop stop-color="white"/>
<stop offset="1" stop-color="white" stop-opacity="0"/>
</linearGradient>
</defs>
</svg>
